# Blender 4.3.2
# www.blender.org
mtllib FoxBody2.mtl
o FoxBody
v -4.247262 4.247259 -10.618154
v 4.247262 4.247261 10.618155
v -4.247262 4.247261 10.618155
v -4.247262 -4.247262 -10.618155
v -4.247262 -4.247259 10.618155
v 4.247262 -4.247262 -10.618155
v 4.247262 4.247259 -10.618154
v 4.247262 -4.247259 10.618155
vn -0.0000 1.0000 -0.0000
vn -1.0000 -0.0000 -0.0000
vn -0.0000 -0.0000 -1.0000
vn 1.0000 -0.0000 -0.0000
vn -0.0000 -0.0000 1.0000
vn -0.0000 -1.0000 -0.0000
vt 0.610490 0.647228
vt 0.563498 0.647327
vt 0.610547 0.001223
vt 0.563555 0.001322
vt 0.563500 0.647319
vt 0.563698 -0.000027
vt 0.516608 0.000208
vt 0.563542 0.999522
vt 0.516794 1.000164
vt 0.563418 0.650481
vt 0.422509 0.000031
vt 0.422525 0.647360
vt 0.469493 0.647446
vt 0.469494 0.000126
vt 0.516613 0.650808
vt 0.516498 0.647410
vt 0.516712 1.000496
vt 0.469499 0.647529
vt 0.470373 -0.001553
vt 0.470373 0.647339
vt 0.516550 -0.001553
vt 0.516550 0.647339
vt 0.469698 1.000537
vt 0.516566 0.647321
s 0
usemtl foxmat
f 3/1/1 2/2/1 1/3/1
f 2/2/1 7/4/1 1/3/1
f 3/5/2 1/6/2 4/7/2
f 1/8/3 7/9/3 4/10/3
f 7/11/4 2/12/4 8/13/4
f 6/14/4 7/11/4 8/13/4
f 7/9/3 6/15/3 4/10/3
f 8/16/5 2/17/5 5/18/5
f 6/19/6 8/20/6 4/21/6
f 8/20/6 5/22/6 4/21/6
f 2/17/5 3/23/5 5/18/5
f 5/24/2 3/5/2 4/7/2
