# Blender 4.3.2
# www.blender.org
mtllib FoxLegRR2.mtl
o FoxLegRR
v 1.592723 5.894123 -1.588846
v 1.592723 5.892027 1.596598
v 1.592723 -5.894123 1.588846
v 1.592723 -5.892027 -1.596601
v -1.592723 -5.892027 -1.596601
v -1.592723 5.894123 -1.588846
v -1.592723 5.892027 1.596598
v -1.592723 -5.894123 1.588846
vn -0.0000 1.0000 0.0007
vn 1.0000 -0.0000 -0.0000
vn -0.0000 0.0007 -1.0000
vn -0.0000 -0.0007 1.0000
vn -1.0000 -0.0000 -0.0000
vn -0.0000 -1.0000 -0.0007
vt 0.633757 0.968688
vt 0.627857 0.968688
vt 0.627857 0.962661
vt 0.641550 0.881790
vt 0.657544 0.881772
vt 0.641560 0.529166
vt 0.657502 0.880999
vt 0.657502 0.528931
vt 0.673501 0.880990
vt 0.641503 0.528983
vt 0.641494 0.881573
vt 0.626517 0.881534
vt 0.633757 0.962661
vt 0.626501 0.528951
vt 0.626504 0.528945
vt 0.626504 0.881792
vt 0.610530 0.528945
vt 0.610530 0.881792
vt 0.651933 0.976744
vt 0.651933 0.981209
vt 0.647613 0.981209
vt 0.673501 0.528923
vt 0.647613 0.976744
vt 0.657551 0.529218
s 0
usemtl foxmat
f 2/1/1 1/2/1 6/3/1
f 1/4/2 2/5/2 4/6/2
f 1/7/3 4/8/3 6/9/3
f 3/10/4 2/11/4 7/12/4
f 7/13/1 2/1/1 6/3/1
f 8/14/4 3/10/4 7/12/4
f 8/15/5 7/16/5 5/17/5
f 7/16/5 6/18/5 5/17/5
f 3/19/6 8/20/6 5/21/6
f 4/8/3 5/22/3 6/9/3
f 4/23/6 3/19/6 5/21/6
f 2/5/2 3/24/2 4/6/2
