# Blender 4.3.2
# www.blender.org
mtllib FoxLegRL2.mtl
o FoxLegRL
v -1.592723 -5.894123 1.588847
v 1.592723 -5.894123 1.588847
v 1.592723 -5.892027 -1.596600
v -1.592723 -5.892027 -1.596600
v -1.592723 5.892027 1.596599
v 1.592723 5.892027 1.596599
v -1.592723 5.894123 -1.588845
v 1.592723 5.894123 -1.588845
vn -0.0000 -0.0007 1.0000
vn -0.0000 -1.0000 -0.0007
vn -1.0000 -0.0000 -0.0000
vn -0.0000 1.0000 0.0007
vn -0.0000 0.0007 -1.0000
vn 1.0000 -0.0000 -0.0000
vt 0.641609 0.528555
vt 0.626514 0.528825
vt 0.626505 0.881416
vt 0.651933 0.976744
vt 0.651933 0.981209
vt 0.647613 0.981209
vt 0.657519 0.529126
vt 0.657519 0.881973
vt 0.641546 0.529126
vt 0.641625 0.881137
vt 0.641546 0.881973
vt 0.633757 0.962661
vt 0.633757 0.968688
vt 0.627857 0.962661
vt 0.627857 0.968688
vt 0.673501 0.528923
vt 0.673501 0.880990
vt 0.657502 0.880999
vt 0.610501 0.881554
vt 0.626495 0.881536
vt 0.610512 0.528930
vt 0.657502 0.528931
vt 0.626502 0.528982
vt 0.647613 0.976744
s 0
usemtl foxmat
f 1/1/1 2/2/1 6/3/1
f 2/4/2 1/5/2 4/6/2
f 1/7/3 5/8/3 4/9/3
f 5/10/1 1/1/1 6/3/1
f 5/8/3 7/11/3 4/9/3
f 5/12/4 6/13/4 7/14/4
f 6/13/4 8/15/4 7/14/4
f 4/16/5 7/17/5 8/18/5
f 8/19/6 6/20/6 3/21/6
f 3/22/5 4/16/5 8/18/5
f 6/20/6 2/23/6 3/21/6
f 3/24/2 2/4/2 4/6/2
