# Blender 4.3.2
# www.blender.org
mtllib FoxLegFL2.mtl
o FoxLegFL
v -1.592723 5.890369 -1.602710
v -1.592723 5.895769 1.582732
v 1.592723 5.895769 1.582732
v 1.592723 5.890369 -1.602710
v -1.592723 -5.895769 -1.582733
v 1.592723 -5.895769 -1.582733
v -1.592723 -5.890369 1.602710
v 1.592723 -5.890369 1.602710
vn -1.0000 -0.0000 -0.0000
vn -0.0000 1.0000 -0.0017
vn -0.0000 -0.0017 -1.0000
vn -0.0000 0.0017 1.0000
vn -0.0000 -1.0000 0.0017
vn 1.0000 -0.0000 -0.0000
vt 0.657519 0.881973
vt 0.641546 0.881973
vt 0.641546 0.529126
vt 0.627857 0.962661
vt 0.633757 0.962661
vt 0.627857 0.968688
vt 0.673501 0.528923
vt 0.673501 0.880990
vt 0.657502 0.880999
vt 0.641609 0.528555
vt 0.626514 0.528825
vt 0.626505 0.881416
vt 0.651933 0.976744
vt 0.651933 0.981209
vt 0.647613 0.976744
vt 0.647613 0.981209
vt 0.657519 0.529126
vt 0.641625 0.881137
vt 0.626495 0.881536
vt 0.626502 0.528982
vt 0.610512 0.528930
vt 0.657502 0.528931
vt 0.610501 0.881554
vt 0.633757 0.968688
s 0
usemtl foxmat
f 2/1/1 1/2/1 5/3/1
f 1/4/2 2/5/2 4/6/2
f 5/7/3 1/8/3 4/9/3
f 7/10/4 8/11/4 3/12/4
f 8/13/5 7/14/5 6/15/5
f 7/14/5 5/16/5 6/15/5
f 7/17/1 2/1/1 5/3/1
f 2/18/4 7/10/4 3/12/4
f 3/19/6 8/20/6 6/21/6
f 6/22/3 5/7/3 4/9/3
f 4/23/6 3/19/6 6/21/6
f 2/5/2 3/24/2 4/6/2
