# Blender 4.2.3 LTS
# www.blender.org
o glasses_lens
v -1.710405 -2.949949 3.963247
v -1.710220 -3.351911 3.929642
v -1.709670 -3.738426 3.830119
v -1.708779 -4.094641 3.668502
v -1.707578 -4.406865 3.451003
v -1.706116 -4.663101 3.185980
v -1.704448 -4.853502 2.883617
v -1.702637 -4.970750 2.555534
v -1.700755 -5.010340 2.214339
v -1.698872 -4.970750 1.873144
v -1.697062 -4.853502 1.545061
v -1.695393 -4.663101 1.242697
v -1.693931 -4.406865 0.977674
v -1.692731 -4.094641 0.760175
v -1.691839 -3.738426 0.598558
v -1.691290 -3.351911 0.499035
v -1.691104 -2.949949 0.465430
v -1.691290 -2.547987 0.499035
v -1.691839 -2.161471 0.598558
v -1.692731 -1.805257 0.760175
v -1.693931 -1.493033 0.977674
v -1.695393 -1.236797 1.242697
v -1.697062 -1.046396 1.545060
v -1.698872 -0.929148 1.873143
v -1.700755 -0.889558 2.214339
v -1.702637 -0.929148 2.555534
v -1.704448 -1.046396 2.883617
v -1.706116 -1.236796 3.185980
v -1.707578 -1.493032 3.451004
v -1.708779 -1.805257 3.668502
v -1.709670 -2.161471 3.830119
v -1.710220 -2.547987 3.929642
v -1.710405 2.949950 3.963247
v -1.710220 3.351912 3.929642
v -1.709670 3.738427 3.830119
v -1.708779 4.094641 3.668502
v -1.707579 4.406866 3.451004
v -1.706116 4.663103 3.185980
v -1.704448 4.853503 2.883617
v -1.702637 4.970751 2.555534
v -1.700755 5.010341 2.214339
v -1.698872 4.970751 1.873144
v -1.697062 4.853503 1.545061
v -1.695393 4.663103 1.242697
v -1.693931 4.406866 0.977674
v -1.692731 4.094641 0.760175
v -1.691839 3.738427 0.598558
v -1.691290 3.351912 0.499035
v -1.691104 2.949950 0.465430
v -1.691290 2.547988 0.499035
v -1.691839 2.161472 0.598558
v -1.692731 1.805258 0.760175
v -1.693931 1.493034 0.977674
v -1.695393 1.236798 1.242697
v -1.697062 1.046397 1.545060
v -1.698872 0.929149 1.873143
v -1.700755 0.889559 2.214339
v -1.702637 0.929149 2.555534
v -1.704448 1.046397 2.883617
v -1.706116 1.236797 3.185980
v -1.707579 1.493033 3.451003
v -1.708779 1.805258 3.668502
v -1.709670 2.161472 3.830119
v -1.710220 2.547988 3.929642
v -1.710358 -2.748016 3.954643
v -1.709988 -2.351912 3.887764
v -1.709265 -1.978789 3.756577
v -1.708214 -1.642987 3.566122
v -1.706876 -1.357412 3.323718
v -1.705303 -1.133036 3.038682
v -1.703556 -0.978484 2.721967
v -1.701700 -0.899694 2.385744
v -1.699809 -0.899694 2.042933
v -1.697954 -0.978484 1.706710
v -1.696206 -1.133037 1.389995
v -1.694633 -1.357412 1.104959
v -1.693296 -1.642987 0.862556
v -1.692245 -1.978789 0.672101
v -1.691521 -2.351912 0.540913
v -1.691152 -2.748016 0.474034
v -1.691152 -3.151881 0.474034
v -1.691521 -3.547986 0.540913
v -1.692245 -3.921109 0.672101
v -1.693296 -4.256910 0.862556
v -1.694633 -4.542486 1.104959
v -1.696206 -4.766861 1.389995
v -1.697954 -4.921413 1.706711
v -1.699809 -5.000204 2.042933
v -1.701700 -5.000204 2.385744
v -1.703556 -4.921413 2.721967
v -1.705303 -4.766861 3.038682
v -1.706876 -4.542486 3.323718
v -1.708214 -4.256910 3.566122
v -1.709265 -3.921109 3.756577
v -1.709988 -3.547986 3.887764
v -1.710358 -3.151881 3.954643
v -1.710358 2.748017 3.954643
v -1.709988 2.351912 3.887764
v -1.709265 1.978790 3.756577
v -1.708214 1.642989 3.566122
v -1.706876 1.357412 3.323718
v -1.705303 1.133037 3.038682
v -1.703556 0.978485 2.721967
v -1.701700 0.899695 2.385744
v -1.699809 0.899695 2.042933
v -1.697954 0.978485 1.706710
v -1.696206 1.133037 1.389995
v -1.694633 1.357413 1.104959
v -1.693296 1.642989 0.862556
v -1.692245 1.978789 0.672101
v -1.691521 2.351912 0.540913
v -1.691152 2.748018 0.474034
v -1.691152 3.151883 0.474034
v -1.691521 3.547987 0.540913
v -1.692245 3.921110 0.672101
v -1.693296 4.256911 0.862556
v -1.694633 4.542488 1.104959
v -1.696206 4.766863 1.389995
v -1.697954 4.921414 1.706711
v -1.699809 5.000206 2.042933
v -1.701700 5.000205 2.385744
v -1.703556 4.921415 2.721967
v -1.705303 4.766862 3.038682
v -1.706876 4.542486 3.323718
v -1.708214 4.256910 3.566122
v -1.709265 3.921110 3.756577
v -1.709988 3.547987 3.887764
v -1.710358 3.151882 3.954643
v -1.700755 -2.949949 2.214339
v -1.700755 2.949952 2.214339
vn -1.0000 -0.0000 -0.0055
vt 0.000000 0.000000
s 1
f 1/1/1 65/1/1 129/1/1 96/1/1
f 32/1/1 66/1/1 129/1/1 65/1/1
f 31/1/1 67/1/1 129/1/1 66/1/1
f 30/1/1 68/1/1 129/1/1 67/1/1
f 29/1/1 69/1/1 129/1/1 68/1/1
f 28/1/1 70/1/1 129/1/1 69/1/1
f 27/1/1 71/1/1 129/1/1 70/1/1
f 26/1/1 72/1/1 129/1/1 71/1/1
f 25/1/1 73/1/1 129/1/1 72/1/1
f 24/1/1 74/1/1 129/1/1 73/1/1
f 23/1/1 75/1/1 129/1/1 74/1/1
f 22/1/1 76/1/1 129/1/1 75/1/1
f 21/1/1 77/1/1 129/1/1 76/1/1
f 20/1/1 78/1/1 129/1/1 77/1/1
f 19/1/1 79/1/1 129/1/1 78/1/1
f 18/1/1 80/1/1 129/1/1 79/1/1
f 17/1/1 81/1/1 129/1/1 80/1/1
f 16/1/1 82/1/1 129/1/1 81/1/1
f 15/1/1 83/1/1 129/1/1 82/1/1
f 14/1/1 84/1/1 129/1/1 83/1/1
f 13/1/1 85/1/1 129/1/1 84/1/1
f 12/1/1 86/1/1 129/1/1 85/1/1
f 11/1/1 87/1/1 129/1/1 86/1/1
f 10/1/1 88/1/1 129/1/1 87/1/1
f 9/1/1 89/1/1 129/1/1 88/1/1
f 8/1/1 90/1/1 129/1/1 89/1/1
f 7/1/1 91/1/1 129/1/1 90/1/1
f 6/1/1 92/1/1 129/1/1 91/1/1
f 5/1/1 93/1/1 129/1/1 92/1/1
f 4/1/1 94/1/1 129/1/1 93/1/1
f 3/1/1 95/1/1 129/1/1 94/1/1
f 2/1/1 96/1/1 129/1/1 95/1/1
f 33/1/1 128/1/1 130/1/1 97/1/1
f 34/1/1 127/1/1 130/1/1 128/1/1
f 35/1/1 126/1/1 130/1/1 127/1/1
f 36/1/1 125/1/1 130/1/1 126/1/1
f 37/1/1 124/1/1 130/1/1 125/1/1
f 38/1/1 123/1/1 130/1/1 124/1/1
f 39/1/1 122/1/1 130/1/1 123/1/1
f 40/1/1 121/1/1 130/1/1 122/1/1
f 41/1/1 120/1/1 130/1/1 121/1/1
f 42/1/1 119/1/1 130/1/1 120/1/1
f 43/1/1 118/1/1 130/1/1 119/1/1
f 44/1/1 117/1/1 130/1/1 118/1/1
f 45/1/1 116/1/1 130/1/1 117/1/1
f 46/1/1 115/1/1 130/1/1 116/1/1
f 47/1/1 114/1/1 130/1/1 115/1/1
f 48/1/1 113/1/1 130/1/1 114/1/1
f 49/1/1 112/1/1 130/1/1 113/1/1
f 50/1/1 111/1/1 130/1/1 112/1/1
f 51/1/1 110/1/1 130/1/1 111/1/1
f 52/1/1 109/1/1 130/1/1 110/1/1
f 53/1/1 108/1/1 130/1/1 109/1/1
f 54/1/1 107/1/1 130/1/1 108/1/1
f 55/1/1 106/1/1 130/1/1 107/1/1
f 56/1/1 105/1/1 130/1/1 106/1/1
f 57/1/1 104/1/1 130/1/1 105/1/1
f 58/1/1 103/1/1 130/1/1 104/1/1
f 59/1/1 102/1/1 130/1/1 103/1/1
f 60/1/1 101/1/1 130/1/1 102/1/1
f 61/1/1 100/1/1 130/1/1 101/1/1
f 62/1/1 99/1/1 130/1/1 100/1/1
f 63/1/1 98/1/1 130/1/1 99/1/1
f 64/1/1 97/1/1 130/1/1 98/1/1
