# Blender 4.2.0
# www.blender.org
o NewportsPack
v -1.004787 -2.434795 -5.249012
v 1.235213 -2.645057 -4.922529
v 1.189051 -2.434797 -5.252597
v -1.082146 -2.327683 -5.248884
v -1.103425 -2.645056 -4.918705
v 1.235371 -2.645057 -4.825832
v 1.368272 -2.466535 -4.826048
v 1.368113 -2.466535 -4.922749
v 1.212854 -2.359421 -5.252637
v 1.189051 -2.434797 -5.252597
v 1.179017 -2.309833 -5.324239
v 1.134386 -2.389176 -5.324164
v 1.132403 -2.276110 -5.324163
v 1.095706 -2.355454 -5.324102
v -0.993994 -2.272142 -5.320683
v -0.915147 -2.347519 -5.320815
v -0.955314 -2.389174 -5.320748
v -1.004787 -2.434795 -5.249012
v 1.160447 -0.078304 -5.324206
v 1.179018 -0.078304 -5.324239
v 1.195721 -0.078304 -5.288894
v 1.212857 -0.078304 -5.252637
v 1.179020 2.145291 -5.324239
v 1.142324 2.099668 -5.324179
v 1.137385 -0.078304 -5.324169
v 0.062038 -0.078303 -5.322413
v 1.057526 2.190913 -5.324039
v -1.048542 -2.313798 -5.320597
v -1.082146 -2.327683 -5.248884
v -1.082144 -0.078301 -5.248884
v -1.065180 -0.078301 -5.285087
v -1.082142 2.200833 -5.248884
v -0.988039 2.077851 -5.320694
v -0.990991 -0.078301 -5.320691
v -1.017744 -0.078301 -5.320647
v -1.048541 -0.078301 -5.320597
v -1.048539 2.147276 -5.320597
v -0.995857 2.278192 -5.249026
v -0.950351 2.232571 -5.320759
v 1.103761 2.278191 -5.252459
v 1.093726 2.232569 -5.324099
v 1.212858 2.192896 -5.252637
v 1.368117 2.309928 -4.922748
v 1.288705 -0.078304 -5.091475
v 1.368114 -0.078304 -4.922749
v 1.368194 -0.078304 -4.874398
v -0.889356 2.173063 -5.320858
v 1.383996 2.309928 4.788359
v 1.251095 2.488451 4.788576
v 1.309686 2.399189 -0.018736
v 1.376135 2.309928 -0.018847
v 1.376134 -0.078304 -0.018844
v 1.368273 -0.078304 -4.826047
v 1.243236 2.488450 -0.018627
v 1.368275 2.309928 -4.826047
v 1.235376 2.488451 -4.825831
v 0.073917 2.488451 -0.016716
v -1.087544 2.488452 4.792398
v -1.087388 2.488452 4.887611
v 1.251251 2.488450 4.883786
v 1.384151 2.309928 4.883571
v 1.384070 -0.078304 4.835962
v 1.384149 -0.078304 4.883571
v 1.384147 -2.466536 4.883571
v 1.341156 -0.078304 4.923697
v 1.298983 -2.462568 4.963054
v 1.235218 2.488451 -4.922529
v -1.103264 2.488453 -4.822008
v -1.095403 2.488452 -0.014804
v -1.103421 2.488453 -4.918708
v 1.103761 2.278191 -5.252459
v -0.995857 2.278192 -5.249026
v 1.251247 -2.645057 4.883787
v -1.087548 -2.645057 4.792398
v -1.087392 -2.645057 4.887611
v 1.251091 -2.645057 4.788576
v 0.073912 -2.645057 -0.016718
v 1.243231 -2.645057 -0.018628
v 1.309682 -2.555795 -0.018736
v 1.376131 -2.466536 -0.018847
v 1.383994 -0.078304 4.788359
v 1.383991 -2.466536 4.788359
v 1.251247 -2.645057 4.883787
v 1.249394 -2.528027 4.963134
v -1.103268 -2.645056 -4.822009
v -1.095407 -2.645057 -0.014804
v -1.236326 -2.466533 -4.918489
v -1.157432 -0.078301 -5.087547
v -1.082144 -0.078301 -5.248884
v -1.082142 2.200833 -5.248884
v -1.236323 -0.078301 -4.918489
v -1.161858 -2.555795 -0.014696
v -1.236168 -2.466533 -4.821789
v -1.236244 -0.078301 -4.870139
v -1.236322 2.309930 -4.918489
v -0.995857 2.278192 -5.249026
v -1.103421 2.488453 -4.918708
v -1.236163 2.309930 -4.821788
v -1.103264 2.488453 -4.822008
v -1.161854 2.399191 -0.014696
v -1.095403 2.488452 -0.014804
v -1.087544 2.488452 4.792398
v -1.220443 2.309930 4.792618
v -1.087388 2.488452 4.887611
v -1.220287 2.309930 4.887830
v -1.220368 -0.078301 4.840222
v -1.220290 -0.078301 4.887830
v -1.220292 -2.466533 4.887830
v -1.220448 -2.466533 4.792618
v -1.087392 -2.645057 4.887611
v -1.228308 -2.466533 -0.014589
v -1.236166 -0.078301 -4.821789
v -1.228305 -0.078301 -0.014590
v -1.220446 -0.078301 4.792618
v -1.228303 2.309930 -0.014589
v 1.175091 2.303977 5.010861
v -1.031718 2.371421 4.966863
v 1.207742 2.379353 4.963202
v -1.134865 2.305963 4.967033
v -1.087388 2.488452 4.887611
v 1.251251 2.488450 4.883786
v 1.298987 2.264305 4.963054
v 1.248483 2.238519 5.010742
v 1.298985 -0.078304 4.963054
v -1.134868 -2.426863 4.967033
v -1.177221 -0.078301 4.927762
v -1.134866 -0.078301 4.967033
v 1.273371 -0.078304 4.987241
v 1.248482 -0.078304 5.010742
v 1.248479 -2.399094 5.010742
v 1.203849 -2.460583 5.010814
v -1.059492 -2.528026 4.966910
v 1.251247 -2.645057 4.883787
v -1.087392 -2.645057 4.887611
v -1.220292 -2.466533 4.887830
v -1.220290 -0.078301 4.887830
v -1.220287 2.309930 4.887830
v 1.165169 -2.403061 5.010878
v -1.103053 -2.383223 5.014585
v -1.014784 -2.460584 5.014442
v -1.002882 -2.389174 5.014423
v 1.210792 -2.365374 5.010804
v 1.222075 -0.078304 5.010785
v 1.248482 -0.078304 5.010742
v 1.195918 2.220667 5.010828
v 1.248483 2.238519 5.010742
v 1.122526 2.258355 5.010948
v -0.998911 2.303979 5.014416
v -1.084205 2.232571 5.014557
v -1.049497 -2.347519 5.014498
v -1.052468 2.198849 5.014506
v -0.967174 2.246455 5.014363
v -1.066693 -0.078302 5.014527
v -1.093641 -0.078302 5.014570
v -1.109332 -0.078302 4.990986
v -1.050979 -0.078302 5.014501
v 0.065899 -0.078303 5.012677
v 1.203374 -0.078304 5.010816
vn 0.0017 -0.0000 1.0000
vn 0.0016 -0.0000 1.0000
vn -0.4716 0.0019 0.8818
vn -0.4718 -0.1102 0.8748
vn -0.7634 0.0017 0.6459
vn -0.6379 -0.2269 0.7359
vn -0.6820 -0.0000 0.7313
vn -0.3621 0.0941 0.9274
vn -0.0876 0.3159 0.9447
vn -0.0950 -0.3126 0.9451
vn -0.5339 0.2756 0.7993
vn -0.1430 0.5140 0.8458
vn 0.1384 0.2981 0.9445
vn 0.3736 -0.0708 0.9249
vn 0.1364 -0.3053 0.9424
vn -0.2713 -0.4881 0.8296
vn -0.6619 0.1957 0.7236
vn -0.2189 0.5208 0.8251
vn -0.6799 -0.0000 0.7333
vn -0.6095 -0.2123 0.7638
vn -0.2282 -0.5083 0.8304
vn 0.0014 -0.5612 0.8277
vn 0.3183 -0.4932 0.8096
vn 0.5970 -0.2395 0.7657
vn 0.6866 -0.0000 0.7271
vn 0.6865 -0.0000 0.7271
vn 0.5920 0.2547 0.7646
vn 0.6844 -0.0000 0.7291
vn 0.6823 -0.0000 0.7311
vn 0.8702 0.2956 0.3941
vn 0.2432 0.5091 0.8256
vn 0.5959 0.2053 0.7763
vn 0.9175 -0.0000 0.3978
vn 0.2412 0.4825 0.8421
vn -0.9492 0.3145 0.0016
vn -1.0000 -0.0000 0.0016
vn -0.8021 0.5971 0.0013
vn -0.9492 -0.3145 0.0016
vn -0.9138 0.3212 -0.2484
vn -0.8021 -0.5971 0.0013
vn -0.4488 -0.8936 0.0007
vn -0.7757 0.5772 -0.2551
vn -0.6152 0.6049 -0.5056
vn -0.8084 0.3312 -0.4866
vn -0.9764 -0.0000 -0.2158
vn -0.9144 -0.3197 -0.2482
vn -0.0000 -1.0000 -0.0000
vn -0.9062 -0.0000 -0.4229
vn -0.8429 -0.2288 -0.4870
vn -0.4305 -0.8582 -0.2796
vn 0.4488 -0.8936 -0.0007
vn 0.8021 -0.5971 -0.0013
vn 0.9492 -0.3145 -0.0016
vn 1.0000 -0.0000 -0.0016
vn 0.7764 -0.5787 0.2496
vn 0.8872 -0.2816 0.3656
vn 0.9492 0.3145 -0.0016
vn -0.0009 0.8435 -0.5372
vn -0.0004 0.9674 -0.2534
vn 0.4332 0.8526 -0.2922
vn -0.0000 1.0000 -0.0000
vn 0.4488 0.8936 -0.0007
vn 0.9091 0.3251 -0.2604
vn 0.3889 0.7429 -0.5448
vn 0.8021 0.5971 -0.0013
vn -0.0016 -0.0000 -1.0000
vn 0.1978 0.5099 -0.8372
vn 0.5381 0.1574 -0.8281
vn 0.7678 0.3689 -0.5237
vn 0.9045 -0.0000 -0.4266
vn 0.9048 -0.0000 -0.4258
vn 0.8701 -0.1681 -0.4633
vn 0.9757 -0.0000 -0.2190
vn 0.9182 -0.3156 -0.2393
vn -0.1419 0.4905 -0.8598
vn -0.5350 0.1638 -0.8288
vn -0.5372 -0.0000 -0.8435
vn -0.3097 0.7042 -0.6389
vn -0.6960 0.3795 -0.6095
vn -0.9055 -0.0000 -0.4243
vn -0.5533 -0.2019 -0.8081
vn -0.8475 -0.2795 -0.4512
vn -0.3546 -0.7133 -0.6045
vn -0.1286 -0.4900 -0.8622
vn -0.0017 -0.0000 -1.0000
vn 0.5344 -0.0000 -0.8452
vn 0.9041 -0.0000 -0.4273
vn 0.5408 -0.0770 -0.8376
vn 0.7182 -0.4703 -0.5129
vn 0.2049 -0.4674 -0.8600
vn 0.4262 -0.8633 -0.2704
vn -0.3784 -0.7255 -0.5748
vn -0.0009 -0.8435 -0.5372
vt 0.671613 0.985588
vt 0.521973 0.985451
vt 0.671626 0.912030
vt 0.520996 0.836670
vt 0.671727 0.837157
vt 0.671861 0.836067
vt 0.823242 0.837646
vt 0.821777 0.985725
vt 0.671721 0.986471
vt 0.671923 0.988061
vt 0.520020 0.988609
vt 0.671654 0.989448
vt 0.516602 0.991417
vt 0.671673 0.991379
vt 0.824219 0.987511
vt 0.824707 0.980179
vt 0.828613 0.982208
vt 0.825684 0.842407
vt 0.515137 0.982987
vt 0.519531 0.982422
vt 0.829102 0.991341
vt 0.833496 0.984650
vt 0.828613 0.839111
vt 0.824707 0.834351
vt 0.672006 0.834412
vt 0.519043 0.834473
vt 0.518555 0.839478
vt 0.515137 0.837036
vt 0.509766 0.986168
vt 0.830078 0.998800
vt 0.842285 0.988854
vt 0.672027 0.995078
vt 0.671875 0.998760
vt 0.513672 0.998720
vt 0.500977 0.988823
vt 0.500488 0.833862
vt 0.509766 0.833374
vt 0.515137 0.830689
vt 0.672142 0.832670
vt 0.672006 0.834534
vt 0.824707 0.834595
vt 0.672271 0.830689
vt 0.672642 0.827183
vt 0.830078 0.823486
vt 0.842285 0.833496
vt 0.826660 0.830689
vt 0.672852 0.823547
vt 0.833984 0.836914
vt 0.022903 0.496643
vt 0.180374 0.498657
vt 0.176758 0.815613
vt 0.183304 0.181396
vt 0.026520 0.179688
vt 0.015736 0.495911
vt 0.019287 0.813599
vt 0.176758 0.818726
vt 0.334229 0.817627
vt 0.337158 0.500366
vt 0.184158 0.178223
vt 0.028015 0.173828
vt 0.340088 0.183105
vt 0.344604 0.500732
vt 0.349121 0.818359
vt 0.348877 0.824585
vt 0.334229 0.823853
vt 0.176704 0.821899
vt 0.019180 0.819946
vt 0.004475 0.819458
vt 0.004631 0.813232
vt 0.008408 0.495728
vt 0.012184 0.178223
vt 0.013878 0.170410
vt 0.028687 0.147461
vt 0.036072 0.150391
vt 0.184906 0.175293
vt 0.341797 0.176758
vt 0.352295 0.184570
vt 0.350708 0.501465
vt 0.427368 0.501648
vt 0.185361 0.163266
vt 0.188833 0.151128
vt 0.339600 0.151855
vt 0.354248 0.178711
vt 0.503418 0.184570
vt 0.502930 0.501648
vt 0.509766 0.501282
vt 0.502441 0.818726
vt 0.516113 0.817993
vt 0.515625 0.501037
vt 0.672852 0.817627
vt 0.501953 0.826294
vt 0.515625 0.823608
vt 0.673096 0.820740
vt 0.829590 0.817261
vt 0.672363 0.500671
vt 0.515137 0.184082
vt 0.502930 0.824829
vt 0.348633 0.824829
vt 0.981445 0.149902
vt 0.991211 0.175781
vt 0.837402 0.151855
vt 0.838867 0.175781
vt 0.995117 0.182617
vt 0.995850 0.499634
vt 0.996582 0.816650
vt 0.918945 0.499634
vt 0.841309 0.182617
vt 0.828125 0.183594
vt 0.827637 0.177734
vt 0.832520 0.149414
vt 0.843750 0.822876
vt 0.843262 0.816650
vt 0.997559 0.822876
vt 0.842285 0.499634
vt 0.835693 0.500122
vt 0.828857 0.500427
vt 0.671631 0.183838
vt 0.671387 0.180908
vt 0.815430 0.008789
vt 0.822266 0.015137
vt 0.816895 0.148438
vt 0.823242 0.143555
vt 0.827148 0.146484
vt 0.819824 0.149902
vt 0.822754 0.153809
vt 0.671717 0.154052
vt 0.670300 0.165747
vt 0.520020 0.154297
vt 0.671143 0.177979
vt 0.514648 0.178223
vt 0.825684 0.011719
vt 0.819824 0.005371
vt 0.672935 0.005127
vt 0.673030 0.006871
vt 0.672877 0.008547
vt 0.830566 0.008301
vt 0.824219 0.000977
vt 0.673361 0.002949
vt 0.525391 0.004883
vt 0.527832 0.008301
vt 0.672765 0.077703
vt 0.673086 0.000731
vt 0.523926 0.000488
vt 0.515625 0.006348
vt 0.520020 0.010742
vt 0.672775 0.148194
vt 0.527344 0.147949
vt 0.672431 0.149402
vt 0.672382 0.150146
vt 0.671836 0.152072
vt 0.524414 0.150391
vt 0.512695 0.152344
vt 0.518555 0.147949
vt 0.521973 0.145508
vt 0.522461 0.013184
vt 0.500977 0.177246
vt 0.356690 0.152832
vt 0.500977 0.152832
s 1
f 156/1/1 150/2/2 157/3/2
f 157/3/2 150/2/2 142/4/2
f 158/5/2 157/3/2 142/4/2
f 158/5/2 142/4/2 143/6/2
f 143/6/2 145/7/2 158/5/2
f 158/5/2 145/7/2 157/3/2
f 157/3/2 145/7/2 151/8/2
f 156/1/1 157/3/2 151/8/2
f 156/1/1 151/8/2 153/9/2
f 156/1/1 153/9/2 150/2/2
f 150/2/2 153/9/2 154/10/3
f 139/11/4 150/2/2 154/10/3
f 154/10/3 155/12/5 139/11/4
f 155/12/5 125/13/6 139/11/4
f 127/14/7 125/13/6 155/12/5
f 127/14/7 155/12/5 149/15/8
f 154/10/3 149/15/8 155/12/5
f 154/10/3 153/9/2 149/15/8
f 151/8/2 149/15/8 153/9/2
f 151/8/2 152/16/2 149/15/8
f 148/17/9 149/15/8 152/16/2
f 152/16/2 147/18/2 148/17/9
f 145/7/2 147/18/2 151/8/2
f 152/16/2 151/8/2 147/18/2
f 139/11/4 140/19/10 150/2/2
f 141/20/2 150/2/2 140/19/10
f 150/2/2 141/20/2 142/4/2
f 119/21/11 127/14/7 149/15/8
f 149/15/8 148/17/9 119/21/11
f 117/22/12 119/21/11 148/17/9
f 148/17/9 116/23/13 117/22/12
f 116/23/13 148/17/9 147/18/2
f 116/23/13 147/18/2 146/24/2
f 145/7/2 146/24/2 147/18/2
f 146/24/2 145/7/2 144/25/2
f 145/7/2 143/6/2 144/25/2
f 144/25/2 143/6/2 130/26/14
f 142/4/2 130/26/14 143/6/2
f 142/4/2 138/27/2 130/26/14
f 138/27/2 142/4/2 141/20/2
f 138/27/2 141/20/2 131/28/15
f 140/19/10 131/28/15 141/20/2
f 140/19/10 132/29/16 131/28/15
f 140/19/10 139/11/4 132/29/16
f 125/13/6 132/29/16 139/11/4
f 131/28/15 130/26/14 138/27/2
f 137/30/17 119/21/11 120/31/18
f 119/21/11 137/30/17 126/32/19
f 136/33/19 126/32/19 137/30/17
f 125/13/6 126/32/19 136/33/19
f 135/34/20 125/13/6 136/33/19
f 125/13/6 135/34/20 132/29/16
f 134/35/21 132/29/16 135/34/20
f 134/35/21 133/36/22 132/29/16
f 84/37/23 132/29/16 133/36/22
f 84/37/23 131/28/15 132/29/16
f 84/37/23 66/38/24 131/28/15
f 130/26/14 131/28/15 66/38/24
f 130/26/14 66/38/24 128/39/25
f 129/40/26 130/26/14 128/39/25
f 129/40/26 128/39/25 123/41/27
f 123/41/27 128/39/25 124/42/28
f 124/42/28 128/39/25 66/38/24
f 124/42/28 66/38/24 65/43/29
f 127/14/7 119/21/11 126/32/19
f 127/14/7 126/32/19 125/13/6
f 61/44/30 121/45/31 122/46/32
f 61/44/30 122/46/32 63/47/33
f 122/46/32 65/43/29 63/47/33
f 124/42/28 65/43/29 122/46/32
f 122/46/32 123/41/27 124/42/28
f 122/46/32 116/23/13 123/41/27
f 118/48/34 116/23/13 122/46/32
f 118/48/34 122/46/32 121/45/31
f 118/48/34 121/45/31 117/22/12
f 120/31/18 117/22/12 121/45/31
f 117/22/12 120/31/18 119/21/11
f 118/48/34 117/22/12 116/23/13
f 115/49/35 113/50/36 114/51/36
f 112/52/36 113/50/36 98/53/35
f 115/49/35 98/53/35 113/50/36
f 115/49/35 100/54/37 98/53/35
f 115/49/35 103/55/35 100/54/37
f 103/55/35 115/49/35 114/51/36
f 114/51/36 106/56/36 103/55/35
f 114/51/36 109/57/38 106/56/36
f 114/51/36 113/50/36 109/57/38
f 111/58/38 109/57/38 113/50/36
f 111/58/38 113/50/36 112/52/36
f 94/59/36 98/53/35 95/60/39
f 112/52/36 98/53/35 94/59/36
f 112/52/36 94/59/36 93/61/38
f 93/61/38 111/58/38 112/52/36
f 111/58/38 93/61/38 92/62/40
f 111/58/38 92/62/40 109/57/38
f 92/62/40 74/63/41 109/57/38
f 74/63/41 110/64/40 109/57/38
f 108/65/38 109/57/38 110/64/40
f 109/57/38 108/65/38 106/56/36
f 107/66/36 106/56/36 108/65/38
f 107/66/36 105/67/35 106/56/36
f 105/67/35 103/55/35 106/56/36
f 105/67/35 104/68/37 103/55/35
f 102/69/37 103/55/35 104/68/37
f 100/54/37 103/55/35 102/69/37
f 101/70/37 100/54/37 102/69/37
f 101/70/37 99/71/37 100/54/37
f 100/54/37 99/71/37 98/53/35
f 99/71/37 97/72/42 98/53/35
f 95/60/39 98/53/35 97/72/42
f 97/72/42 96/73/43 95/60/39
f 90/74/44 95/60/39 96/73/43
f 95/60/39 90/74/44 91/75/45
f 91/75/45 94/59/36 95/60/39
f 91/75/45 87/76/46 94/59/36
f 94/59/36 87/76/46 93/61/38
f 93/61/38 87/76/46 85/77/41
f 92/62/40 93/61/38 85/77/41
f 86/78/41 92/62/40 85/77/41
f 86/78/41 74/63/41 92/62/40
f 86/78/41 77/79/47 74/63/41
f 91/75/45 88/80/48 87/76/46
f 90/74/44 88/80/48 91/75/45
f 89/81/48 88/80/48 90/74/44
f 89/81/48 4/82/49 88/80/48
f 4/82/49 87/76/46 88/80/48
f 87/76/46 4/82/49 5/83/50
f 5/83/50 85/77/41 87/76/46
f 85/77/41 5/83/50 6/84/51
f 77/79/47 85/77/41 6/84/51
f 86/78/41 85/77/41 77/79/47
f 78/85/51 79/86/52 76/87/51
f 79/86/52 82/88/53 76/87/51
f 80/89/53 82/88/53 79/86/52
f 82/88/53 80/89/53 81/90/54
f 84/37/23 83/91/55 66/38/24
f 64/92/56 66/38/24 83/91/55
f 83/91/55 76/87/51 64/92/56
f 82/88/53 64/92/56 76/87/51
f 64/92/56 82/88/53 62/93/54
f 81/90/54 62/93/54 82/88/53
f 81/90/54 48/94/57 62/93/54
f 81/90/54 52/95/54 48/94/57
f 80/89/53 52/95/54 81/90/54
f 80/89/53 7/96/53 52/95/54
f 80/89/53 79/86/52 7/96/53
f 79/86/52 6/84/51 7/96/53
f 78/85/51 6/84/51 79/86/52
f 78/85/51 77/79/47 6/84/51
f 78/85/51 76/87/51 77/79/47
f 77/79/47 76/87/51 74/63/41
f 76/87/51 73/97/47 74/63/41
f 75/98/47 74/63/41 73/97/47
f 72/99/58 70/100/59 71/101/58
f 67/102/60 71/101/58 70/100/59
f 70/100/59 68/103/61 67/102/60
f 69/104/61 58/105/61 57/106/61
f 69/104/61 57/106/61 68/103/61
f 57/106/61 56/107/62 68/103/61
f 56/107/62 67/102/60 68/103/61
f 56/107/62 55/108/57 67/102/60
f 43/109/63 67/102/60 55/108/57
f 67/102/60 43/109/63 40/110/64
f 66/38/24 64/92/56 65/43/29
f 63/47/33 65/43/29 64/92/56
f 63/47/33 64/92/56 62/93/54
f 63/47/33 62/93/54 61/44/30
f 48/94/57 61/44/30 62/93/54
f 61/44/30 48/94/57 60/111/62
f 49/112/62 60/111/62 48/94/57
f 60/111/62 49/112/62 59/113/61
f 58/105/61 59/113/61 49/112/62
f 57/106/61 58/105/61 49/112/62
f 54/114/62 57/106/61 49/112/62
f 54/114/62 56/107/62 57/106/61
f 54/114/62 50/115/65 56/107/62
f 50/115/65 55/108/57 56/107/62
f 51/116/57 55/108/57 50/115/65
f 55/108/57 51/116/57 53/117/54
f 53/117/54 46/118/54 55/108/57
f 43/109/63 55/108/57 46/118/54
f 54/114/62 49/112/62 50/115/65
f 33/119/66 47/120/66 24/121/66
f 27/122/66 24/121/66 47/120/66
f 27/122/66 47/120/66 41/123/67
f 41/123/67 23/124/68 27/122/66
f 23/124/68 41/123/67 42/125/69
f 42/125/69 22/126/70 23/124/68
f 22/126/70 42/125/69 44/127/71
f 22/126/70 44/127/71 9/128/72
f 9/128/72 44/127/71 45/129/73
f 8/130/74 9/128/72 45/129/73
f 45/129/73 46/118/54 8/130/74
f 7/96/53 8/130/74 46/118/54
f 53/117/54 7/96/53 46/118/54
f 53/117/54 52/95/54 7/96/53
f 51/116/57 52/95/54 53/117/54
f 51/116/57 48/94/57 52/95/54
f 51/116/57 50/115/65 48/94/57
f 50/115/65 49/112/62 48/94/57
f 39/131/75 41/123/67 47/120/66
f 47/120/66 33/119/66 39/131/75
f 37/132/76 39/131/75 33/119/66
f 37/132/76 33/119/66 36/133/77
f 33/119/66 35/134/66 36/133/77
f 34/135/66 35/134/66 33/119/66
f 45/129/73 43/109/63 46/118/54
f 45/129/73 44/127/71 43/109/63
f 42/125/69 43/109/63 44/127/71
f 42/125/69 40/110/64 43/109/63
f 40/110/64 42/125/69 41/123/67
f 41/123/67 39/131/75 40/110/64
f 38/136/78 40/110/64 39/131/75
f 39/131/75 37/132/76 38/136/78
f 32/137/79 38/136/78 37/132/76
f 31/138/80 32/137/79 37/132/76
f 36/133/77 31/138/80 37/132/76
f 36/133/77 28/139/81 31/138/80
f 36/133/77 35/134/66 28/139/81
f 15/140/66 28/139/81 35/134/66
f 34/135/66 15/140/66 35/134/66
f 34/135/66 26/141/66 15/140/66
f 34/135/66 33/119/66 26/141/66
f 26/141/66 33/119/66 24/121/66
f 30/142/80 32/137/79 31/138/80
f 30/142/80 31/138/80 28/139/81
f 29/143/82 30/142/80 28/139/81
f 29/143/82 28/139/81 18/144/83
f 17/145/84 18/144/83 28/139/81
f 28/139/81 15/140/66 17/145/84
f 24/121/66 27/122/66 23/124/68
f 25/146/66 26/141/66 24/121/66
f 26/141/66 13/147/66 15/140/66
f 25/146/66 13/147/66 26/141/66
f 25/146/66 19/148/85 13/147/66
f 25/146/66 24/121/66 19/148/85
f 20/149/86 19/148/85 24/121/66
f 23/124/68 20/149/86 24/121/66
f 20/149/86 23/124/68 21/150/87
f 22/126/70 21/150/87 23/124/68
f 22/126/70 9/128/72 21/150/87
f 21/150/87 9/128/72 11/151/88
f 20/149/86 21/150/87 11/151/88
f 20/149/86 11/151/88 19/148/85
f 19/148/85 11/151/88 13/147/66
f 10/152/89 18/144/83 12/153/90
f 17/145/84 12/153/90 18/144/83
f 12/153/90 17/145/84 14/154/66
f 16/155/66 14/154/66 17/145/84
f 16/155/66 17/145/84 15/140/66
f 16/155/66 15/140/66 14/154/66
f 13/147/66 14/154/66 15/140/66
f 14/154/66 13/147/66 12/153/90
f 11/151/88 12/153/90 13/147/66
f 12/153/90 11/151/88 10/152/89
f 9/128/72 10/152/89 11/151/88
f 10/152/89 9/128/72 2/156/91
f 8/130/74 2/156/91 9/128/72
f 8/130/74 7/96/53 2/156/91
f 6/84/51 2/156/91 7/96/53
f 2/156/91 6/84/51 5/83/50
f 5/83/50 1/157/92 2/156/91
f 1/157/92 5/83/50 4/82/49
f 3/158/93 2/156/91 1/157/92
