# Blender 4.2.0
# www.blender.org
o other\Canine.smd
v -0.009556 -0.094429 0.312481
v -0.011072 -0.129248 0.383589
v 0.040540 -0.098150 0.383771
v -0.007638 -0.068882 0.241555
v 0.025900 -0.069150 0.312510
v 0.054485 -0.000588 0.382179
v 0.033206 0.098042 0.380043
v -0.020851 0.132343 0.378633
v -0.015633 0.096962 0.309102
v 0.021483 0.069750 0.310062
v 0.037448 -0.000065 0.311471
v 0.016844 -0.049615 0.241526
v -0.005407 -0.054761 0.183899
v 0.012596 -0.039485 0.183899
v -0.003225 -0.040219 0.136780
v 0.007440 -0.029221 0.136780
v -0.001191 -0.027442 0.056566
v 0.005845 -0.020023 0.056566
v -0.000235 -0.012212 0.000000
v 0.002835 -0.008972 0.000000
v 0.004479 -0.000136 0.000000
v 0.009632 0.000280 0.056566
v 0.003252 0.008662 0.000000
v 0.000330 0.011701 0.000000
v 0.014536 0.050572 0.239963
v 0.025589 0.000276 0.240858
v 0.019476 0.000500 0.183899
v 0.012742 0.000812 0.136780
v 0.011964 0.040611 0.183899
v 0.008856 0.030694 0.136780
v 0.006802 0.020502 0.056566
v 0.000107 0.027457 0.056566
v -0.001304 0.041038 0.136780
v -0.006277 0.056165 0.183899
v -0.010851 0.070853 0.239375
v -0.086408 0.003683 0.380049
v -0.065129 -0.094947 0.382179
v -0.046749 -0.067214 0.311522
v -0.011072 -0.129248 0.383589
v -0.009556 -0.094429 0.312481
v -0.007638 -0.068882 0.241555
v -0.051167 0.071685 0.309065
v -0.072464 0.101246 0.378451
v -0.062636 0.002597 0.310104
v -0.033111 -0.048597 0.240974
v -0.005407 -0.054761 0.183899
v -0.023954 -0.039191 0.183899
v -0.003225 -0.040219 0.136780
v -0.014610 -0.029812 0.136780
v -0.001191 -0.027442 0.056566
v -0.009103 -0.020424 0.056566
v -0.000235 -0.012212 0.000000
v -0.003669 -0.009146 0.000000
v -0.004384 -0.000374 0.000000
v -0.010716 -0.000265 0.056566
v -0.003253 0.008488 0.000000
v -0.008145 0.020101 0.056566
v 0.000330 0.011701 0.000000
v -0.044078 0.001694 0.240073
v -0.031160 0.000904 0.183899
v -0.017271 0.000008 0.136780
v -0.035420 0.051590 0.239397
v -0.024586 0.040904 0.183899
v -0.013195 0.030104 0.136780
v 0.000107 0.027457 0.056566
v -0.001304 0.041038 0.136780
v -0.006277 0.056165 0.183899
v -0.010851 0.070853 0.239375
v -0.015633 0.096962 0.309102
v -0.020851 0.132343 0.378633
v 0.009679 0.062327 0.758791
v -0.004998 0.006173 0.759794
v -0.008209 0.052987 0.735217
v -0.008279 0.105811 0.665832
v 0.014703 0.007095 0.790308
v 0.007042 -0.049264 0.760237
v -0.010442 -0.041485 0.736438
v -0.013053 -0.096131 0.668447
v -0.035462 -0.071505 0.668593
v -0.060285 -0.094056 0.544705
v -0.069127 0.001698 0.543674
v -0.065129 -0.094947 0.382179
v -0.086408 0.003683 0.380049
v -0.055743 0.098047 0.542184
v -0.072464 0.101246 0.378451
v -0.020851 0.132343 0.378633
v -0.021647 0.130958 0.541065
v -0.031881 0.079952 0.666639
v -0.041340 0.004019 0.667772
v -0.027702 -0.125179 0.544429
v -0.011072 -0.129248 0.383589
v 0.020007 0.005662 0.666507
v 0.017297 0.053671 0.734686
v 0.014129 0.081184 0.665679
v 0.021719 0.006888 0.759242
v 0.015065 -0.040802 0.735915
v 0.010549 -0.070273 0.667648
v 0.019779 0.004081 0.541813
v 0.010936 0.099834 0.540789
v -0.008279 0.105811 0.665832
v 0.009679 0.062327 0.758791
v 0.014703 0.007095 0.790308
v 0.007042 -0.049264 0.760237
v -0.013053 -0.096131 0.668447
v 0.006395 -0.092269 0.543310
v 0.040540 -0.098150 0.383771
v 0.054485 -0.000588 0.382179
v 0.033206 0.098042 0.380043
v -0.020851 0.132343 0.378633
v -0.021647 0.130958 0.541065
v -0.027702 -0.125179 0.544429
v -0.011072 -0.129248 0.383589
vn 0.8414 -0.5343 -0.0812
vn 0.8623 -0.4933 0.1144
vn 0.0160 -0.9815 -0.1907
vn -0.0401 -0.9886 0.1450
vn 0.0099 -0.9387 0.3445
vn 0.9425 0.3160 0.1083
vn 0.9138 0.4012 0.0630
vn 0.0111 0.9495 0.3137
vn 0.8693 0.4883 0.0766
vn -0.0166 0.9921 0.1242
vn -0.0006 0.9777 -0.2101
vn 0.8335 0.5424 -0.1056
vn 0.9955 -0.0058 0.0947
vn 0.9996 0.0167 -0.0243
vn 0.9040 -0.4218 0.0699
vn 0.9331 -0.3415 0.1124
vn 0.1065 -0.6745 0.7306
vn 0.9900 -0.0188 0.1397
vn 0.1792 0.0119 0.9837
vn 0.1233 0.6948 0.7086
vn 0.9997 -0.0232 -0.0110
vn -0.8218 -0.5420 -0.1756
vn -0.0400 -0.9886 0.1451
vn -0.8713 -0.4709 0.1382
vn 0.0100 -0.9387 0.3445
vn -0.8646 0.4788 0.1521
vn -0.9887 0.0083 0.1496
vn -0.8584 0.4038 0.3163
vn -0.9565 0.0257 0.2906
vn -0.8645 -0.3729 0.3371
vn -0.8434 -0.2838 0.4563
vn -0.8746 0.0246 0.4842
vn -0.8390 0.3232 0.4376
vn 0.0112 0.9495 0.3137
vn -0.0165 0.9921 0.1241
vn -0.0005 0.9777 -0.2101
vn -0.8329 0.5273 -0.1682
vn -0.9924 -0.0197 -0.1214
vn 0.1064 -0.6745 0.7306
vn 0.1791 0.0118 0.9838
vn 0.1232 0.6948 0.7086
vn -0.8329 0.5272 -0.1683
vn 0.0199 0.9034 -0.4284
vn -0.7945 0.4801 -0.3718
vn 0.0123 0.9476 -0.3191
vn -0.8273 0.4831 -0.2866
vn 0.0139 0.9575 -0.2882
vn -0.8352 0.4739 -0.2791
vn 0.0451 0.9670 -0.2507
vn -0.8609 0.4605 -0.2163
vn 0.0370 0.9764 -0.2126
vn -0.8744 0.4638 -0.1422
vn 0.0332 0.7335 -0.6789
vn -0.9952 0.0227 -0.0954
vn -0.9847 0.0132 -0.1735
vn -0.9711 -0.0064 -0.2388
vn -0.9715 -0.0237 -0.2357
vn -0.9552 -0.0340 -0.2940
vn -0.6539 -0.2995 -0.6948
vn -0.8840 -0.4450 -0.1433
vn -0.8703 -0.4512 -0.1976
vn -0.8396 -0.4847 -0.2453
vn -0.8227 -0.5076 -0.2562
vn -0.6445 0.3129 -0.6977
vn -0.6896 0.0158 -0.7240
vn 0.0416 -0.7361 -0.6756
vn 0.0416 -0.9782 -0.2032
vn 0.0310 -0.9695 -0.2432
vn 0.0087 -0.9614 -0.2749
vn 0.0002 -0.9518 -0.3066
vn -0.7872 -0.5145 -0.3400
vn -0.9924 -0.0197 -0.1215
vn -0.0012 -0.9089 -0.4171
vn 0.0123 0.9476 -0.3192
vn 0.0198 0.9034 -0.4284
vn 0.8123 0.5148 -0.2740
vn 0.8410 0.5115 -0.1765
vn 0.0138 0.9575 -0.2882
vn 0.8588 0.4915 -0.1447
vn 0.0450 0.9670 -0.2507
vn 0.8864 0.4477 -0.1180
vn 0.0370 0.9765 -0.2125
vn 0.8918 0.4382 -0.1126
vn 0.6555 0.2935 -0.6958
vn 0.9976 -0.0226 -0.0651
vn 0.9962 -0.0133 -0.0866
vn 0.9933 0.0047 -0.1158
vn 0.9909 0.0190 -0.1332
vn 0.8844 -0.4554 -0.1022
vn 0.6478 -0.3086 -0.6965
vn 0.8800 -0.4575 -0.1278
vn 0.8583 -0.4856 -0.1661
vn 0.8460 -0.4972 -0.1925
vn 0.9783 0.0258 -0.2057
vn 0.7086 -0.0168 -0.7054
vn 0.0415 -0.9782 -0.2033
vn 0.0309 -0.9695 -0.2431
vn 0.0086 -0.9614 -0.2749
vn 0.0001 -0.9518 -0.3066
vn 0.8165 -0.4972 -0.2934
vn 0.9996 0.0167 -0.0244
vn 0.8335 0.5424 -0.1057
vn -0.0006 0.9777 -0.2100
vn 0.8414 -0.5343 -0.0813
vn -0.0012 -0.9089 -0.4170
vt 0.769083 0.784328
vt 0.765336 0.844028
vt 0.746943 0.783332
vt 0.746943 0.845473
vt 0.761284 0.893796
vt 0.822812 0.918648
vt 0.833589 0.892150
vt 0.846504 0.893073
vt 0.842018 0.843579
vt 0.859529 0.844531
vt 0.862384 0.781783
vt 0.838345 0.783395
vt 0.804032 0.843758
vt 0.802915 0.782840
vt 0.774833 0.892671
vt 0.786271 0.918991
vt 0.782344 0.928763
vt 0.804734 0.927852
vt 0.804716 0.940178
vt 0.826631 0.928355
vt 0.804382 0.892302
vt 0.692017 0.785415
vt 0.715889 0.782437
vt 0.712144 0.844782
vt 0.694650 0.843951
vt 0.701177 0.894501
vt 0.622159 0.845720
vt 0.658693 0.844591
vt 0.630658 0.893489
vt 0.659559 0.892283
vt 0.688186 0.891889
vt 0.678393 0.920532
vt 0.659935 0.930493
vt 0.641128 0.921540
vt 0.617205 0.896696
vt 0.604168 0.847852
vt 0.598759 0.784828
vt 0.621604 0.786258
vt 0.656073 0.785355
vt 0.682556 0.932068
vt 0.659935 0.945037
vt 0.636916 0.933260
vt 0.625335 0.756899
vt 0.600304 0.756899
vt 0.612699 0.717257
vt 0.632165 0.721282
vt 0.625494 0.685523
vt 0.639329 0.688544
vt 0.633283 0.660713
vt 0.643847 0.662864
vt 0.640319 0.639249
vt 0.647647 0.640304
vt 0.647491 0.603155
vt 0.652180 0.603803
vt 0.656381 0.580375
vt 0.661545 0.603935
vt 0.661961 0.640478
vt 0.662081 0.663048
vt 0.662353 0.689217
vt 0.662764 0.721507
vt 0.664515 0.581812
vt 0.670837 0.603588
vt 0.676027 0.639891
vt 0.680387 0.661952
vt 0.685680 0.687931
vt 0.658114 0.581636
vt 0.661318 0.582038
vt 0.666074 0.580375
vt 0.675296 0.602837
vt 0.682983 0.638730
vt 0.691065 0.659598
vt 0.700056 0.684812
vt 0.693940 0.720303
vt 0.663102 0.756899
vt 0.714163 0.715998
vt 0.702486 0.756899
vt 0.728641 0.756899
vt 0.845929 0.683929
vt 0.859506 0.715008
vt 0.838946 0.718222
vt 0.831408 0.686115
vt 0.837201 0.659609
vt 0.826526 0.660815
vt 0.828776 0.638937
vt 0.822262 0.639429
vt 0.821945 0.603177
vt 0.817845 0.603598
vt 0.813352 0.580476
vt 0.811868 0.581662
vt 0.808560 0.603715
vt 0.808437 0.639562
vt 0.808213 0.661104
vt 0.807981 0.687070
vt 0.799253 0.603376
vt 0.805452 0.581370
vt 0.794421 0.639173
vt 0.790051 0.660686
vt 0.784904 0.686672
vt 0.807631 0.719030
vt 0.803846 0.580261
vt 0.808646 0.581993
vt 0.794915 0.602871
vt 0.787535 0.638502
vt 0.779585 0.659193
vt 0.771016 0.684434
vt 0.777071 0.719217
vt 0.807171 0.756899
vt 0.846785 0.756899
vt 0.873663 0.756899
vt 0.769344 0.756899
vt 0.757631 0.716032
vt 0.744590 0.756899
s 1
f 106/1/1 105/2/2 112/3/3
f 105/2/2 111/4/4 112/3/3
f 111/4/4 105/2/2 104/5/5
f 93/6/6 94/7/7 100/8/8
f 94/7/7 99/9/9 100/8/8
f 99/9/9 110/10/10 100/8/8
f 110/10/10 99/9/9 109/11/11
f 99/9/9 108/12/12 109/11/11
f 99/9/9 98/13/13 108/12/12
f 98/13/13 107/14/14 108/12/12
f 106/1/1 107/14/14 98/13/13
f 105/2/2 106/1/1 98/13/13
f 105/2/2 98/13/13 97/15/15
f 105/2/2 97/15/15 104/5/5
f 97/15/15 96/16/16 104/5/5
f 96/16/16 103/17/17 104/5/5
f 96/16/16 95/18/18 103/17/17
f 95/18/18 102/19/19 103/17/17
f 101/20/20 102/19/19 95/18/18
f 93/6/6 101/20/20 95/18/18
f 101/20/20 93/6/6 100/8/8
f 99/9/9 94/7/7 98/13/13
f 94/7/7 92/21/21 98/13/13
f 98/13/13 92/21/21 97/15/15
f 96/16/16 97/15/15 92/21/21
f 95/18/18 96/16/16 92/21/21
f 93/6/6 95/18/18 92/21/21
f 94/7/7 93/6/6 92/21/21
f 82/22/22 91/23/3 90/24/23
f 80/25/24 82/22/22 90/24/23
f 80/25/24 90/24/23 78/26/25
f 84/27/26 81/28/27 88/29/28
f 81/28/27 89/30/29 88/29/28
f 79/31/30 89/30/29 81/28/27
f 79/31/30 77/32/31 89/30/29
f 77/32/31 72/33/32 89/30/29
f 72/33/32 73/34/33 89/30/29
f 73/34/33 88/29/28 89/30/29
f 88/29/28 73/34/33 74/35/34
f 84/27/26 88/29/28 74/35/34
f 87/36/35 84/27/26 74/35/34
f 84/27/26 87/36/35 86/37/36
f 85/38/37 84/27/26 86/37/36
f 84/27/26 85/38/37 83/39/38
f 81/28/27 84/27/26 83/39/38
f 81/28/27 83/39/38 82/22/22
f 80/25/24 81/28/27 82/22/22
f 80/25/24 79/31/30 81/28/27
f 79/31/30 80/25/24 78/26/25
f 77/32/31 79/31/30 78/26/25
f 76/40/39 77/32/31 78/26/25
f 77/32/31 76/40/39 72/33/32
f 76/40/39 75/41/40 72/33/32
f 72/33/32 75/41/40 71/42/41
f 73/34/33 71/42/41 74/35/34
f 73/34/33 72/33/32 71/42/41
f 43/43/42 70/44/36 69/45/43
f 42/46/44 43/43/42 69/45/43
f 42/46/44 69/45/43 68/47/45
f 62/48/46 42/46/44 68/47/45
f 62/48/46 68/47/45 67/49/47
f 63/50/48 62/48/46 67/49/47
f 63/50/48 67/49/47 66/51/49
f 64/52/50 63/50/48 66/51/49
f 64/52/50 66/51/49 65/53/51
f 57/54/52 64/52/50 65/53/51
f 57/54/52 65/53/51 58/55/53
f 55/56/54 61/57/55 57/54/52
f 61/57/55 64/52/50 57/54/52
f 64/52/50 61/57/55 60/58/56
f 63/50/48 64/52/50 60/58/56
f 63/50/48 60/58/56 59/59/57
f 62/48/46 63/50/48 59/59/57
f 62/48/46 59/59/57 44/60/58
f 42/46/44 62/48/46 44/60/58
f 53/61/59 51/62/60 55/56/54
f 55/56/54 51/62/60 61/57/55
f 51/62/60 49/63/61 61/57/55
f 61/57/55 49/63/61 60/58/56
f 49/63/61 47/64/62 60/58/56
f 60/58/56 47/64/62 59/59/57
f 47/64/62 45/65/63 59/59/57
f 59/59/57 45/65/63 44/60/58
f 56/66/64 58/55/53 54/67/65
f 58/55/53 52/68/66 54/67/65
f 56/66/64 57/54/52 58/55/53
f 55/56/54 57/54/52 56/66/64
f 54/67/65 55/56/54 56/66/64
f 54/67/65 53/61/59 55/56/54
f 52/68/66 53/61/59 54/67/65
f 53/61/59 52/68/66 51/62/60
f 52/68/66 50/69/67 51/62/60
f 51/62/60 50/69/67 49/63/61
f 50/69/67 48/70/68 49/63/61
f 49/63/61 48/70/68 47/64/62
f 48/70/68 46/71/69 47/64/62
f 47/64/62 46/71/69 45/65/63
f 46/71/69 41/72/70 45/65/63
f 45/65/63 41/72/70 38/73/71
f 45/65/63 38/73/71 44/60/58
f 44/60/58 38/73/71 36/74/72
f 42/46/44 44/60/58 36/74/72
f 43/43/42 42/46/44 36/74/72
f 41/72/70 40/75/73 38/73/71
f 38/73/71 40/75/73 37/76/22
f 40/75/73 39/77/3 37/76/22
f 38/73/71 37/76/22 36/74/72
f 35/78/74 9/79/75 10/80/76
f 25/81/77 35/78/74 10/80/76
f 34/82/78 35/78/74 25/81/77
f 29/83/79 34/82/78 25/81/77
f 33/84/80 34/82/78 29/83/79
f 30/85/81 33/84/80 29/83/79
f 32/86/82 33/84/80 30/85/81
f 31/87/83 32/86/82 30/85/81
f 24/88/53 32/86/82 31/87/83
f 23/89/84 24/88/53 31/87/83
f 23/89/84 31/87/83 22/90/85
f 22/90/85 31/87/83 28/91/86
f 31/87/83 30/85/81 28/91/86
f 28/91/86 30/85/81 27/92/87
f 30/85/81 29/83/79 27/92/87
f 27/92/87 29/83/79 26/93/88
f 29/83/79 25/81/77 26/93/88
f 22/90/85 18/94/89 20/95/90
f 22/90/85 28/91/86 18/94/89
f 28/91/86 16/96/91 18/94/89
f 16/96/91 28/91/86 27/92/87
f 14/97/92 16/96/91 27/92/87
f 14/97/92 27/92/87 26/93/88
f 12/98/93 14/97/92 26/93/88
f 12/98/93 26/93/88 11/99/94
f 26/93/88 25/81/77 11/99/94
f 25/81/77 10/80/76 11/99/94
f 19/100/66 24/88/53 21/101/95
f 24/88/53 23/89/84 21/101/95
f 21/101/95 23/89/84 22/90/85
f 21/101/95 22/90/85 20/95/90
f 20/95/90 19/100/66 21/101/95
f 20/95/90 18/94/89 19/100/66
f 18/94/89 17/102/96 19/100/66
f 18/94/89 16/96/91 17/102/96
f 16/96/91 15/103/97 17/102/96
f 16/96/91 14/97/92 15/103/97
f 14/97/92 13/104/98 15/103/97
f 14/97/92 12/98/93 13/104/98
f 12/98/93 4/105/99 13/104/98
f 12/98/93 5/106/100 4/105/99
f 5/106/100 12/98/93 11/99/94
f 5/106/100 11/99/94 6/107/101
f 11/99/94 10/80/76 6/107/101
f 10/80/76 7/108/102 6/107/101
f 10/80/76 9/79/75 7/108/102
f 9/79/75 8/109/103 7/108/102
f 3/110/104 5/106/100 6/107/101
f 5/106/100 3/110/104 1/111/105
f 5/106/100 1/111/105 4/105/99
f 3/110/104 2/112/3 1/111/105
