# Blender 4.1.0
# www.blender.org
o flipbottom
v -0.145562 0.525703 0.186981
v -0.145562 -0.458697 0.186981
v -0.034406 0.917903 -0.005545
v 1.227678 1.118344 -2.191544
v 0.102736 1.118344 -0.243085
v 0.102737 -1.051338 -0.243085
v -0.034406 -0.850897 -0.005545
v 1.713209 0.525703 -3.032504
v 1.495861 0.917903 -2.656048
v 1.495861 -0.850897 -2.656048
v 1.227678 -1.051338 -2.191544
v 1.713209 -0.458697 -3.032504
v 0.410931 -0.565799 -1.006728
v 0.410931 -0.975877 -1.006728
v 0.539569 -0.975877 -0.932457
v 0.539569 1.034013 -0.932457
v 0.410931 1.034013 -1.006728
v 0.410931 0.610437 -1.006728
v 0.539569 0.610437 -0.932457
v 0.544912 0.607576 -0.941678
v 0.669097 0.360209 -1.155617
v 1.248756 1.034013 -2.154851
v 0.714546 0.022309 -1.233915
v 0.669097 -0.315591 -1.155617
v 0.587637 0.022309 -1.307186
v 0.541738 -0.315591 -1.229146
v 0.544912 -0.562957 -0.941678
v 0.416341 -0.562957 -1.015909
v 0.539569 -0.565819 -0.932457
v 1.248756 -0.975877 -2.154851
v 1.126385 -0.975877 -2.225502
v 0.416341 0.607576 -1.015909
v 0.541738 0.360209 -1.229146
v 1.426858 0.814122 -2.458917
v 1.515712 0.512992 -2.612820
v 1.515712 -0.454857 -2.612820
v 1.426858 -0.755987 -2.458917
v 1.309193 -0.755987 -2.526852
v 1.398048 -0.454857 -2.680753
v 1.398048 0.512992 -2.680753
v 1.309193 0.814122 -2.526852
v 1.126385 1.034013 -2.225502
v -0.515771 0.855827 0.066117
v -0.552586 0.753178 0.044860
v -0.515771 0.650548 0.066117
v -0.426893 0.608037 0.117430
v -0.483409 0.617234 -0.056565
v -0.532180 0.753178 -0.084724
v -0.483409 0.889140 -0.056565
v -0.365679 0.945438 0.011406
v -0.257716 0.753178 -0.642023
v -0.198552 0.918096 -0.607864
v -0.055745 0.986394 -0.525415
v 0.087078 0.918096 -0.442956
v -0.365679 0.560937 0.011406
v -0.338013 0.650548 0.168744
v -0.338013 0.855827 0.168744
v -0.426893 0.898338 0.117430
v -0.247949 0.889140 0.079378
v 0.146226 0.753178 -0.408807
v -0.199176 0.753178 0.107536
v 0.087078 0.588279 -0.442956
v -0.247949 0.617234 0.079378
v -0.055745 0.519962 -0.525415
v -0.198552 0.588279 -0.607864
v -0.301197 0.753178 0.190001
v 0.266607 -0.474711 -0.380832
v 0.410088 -0.551591 -0.629347
v 0.553558 -0.474711 -0.877846
v 0.123136 0.022309 -0.132334
v 0.161577 -0.264632 -0.198915
v 0.553558 0.519328 -0.877846
v 0.697037 0.022309 -1.126359
v 0.658596 -0.264632 -1.059779
v 0.590220 0.309269 -1.099257
v 0.485180 0.519328 -0.917323
v 0.658596 0.309269 -1.059779
v 0.628660 0.022309 -1.165838
v 0.590220 -0.264632 -1.099257
v 0.485180 -0.474711 -0.917323
v 0.341710 -0.551591 -0.668825
v 0.198230 -0.474711 -0.420310
v 0.093200 -0.264632 -0.238392
v 0.054758 0.022309 -0.171811
v 0.093200 0.309269 -0.238392
v 0.161577 0.309269 -0.198915
v 0.198230 0.519328 -0.420310
v 0.266607 0.519328 -0.380832
v 0.341710 0.596209 -0.668825
v 0.410088 0.596209 -0.629347
v -0.276528 -0.721061 -0.680487
v -0.434273 -0.308852 -0.407262
v -0.434273 0.375858 -0.407262
v -0.363650 -0.581640 -0.529583
v 0.756951 0.988026 -2.233355
v 0.568876 0.788085 -2.144768
v -0.276528 0.788085 -0.680487
v -0.363650 0.648667 -0.529583
v 0.877333 -0.308852 -2.679030
v 0.739246 -0.581640 -2.439861
v 0.568876 -0.721061 -2.144768
v 0.877333 0.375858 -2.679030
v 1.147148 -0.399576 -2.909195
v 0.972476 -0.744658 -2.606652
v 0.756951 -0.921019 -2.233355
v -0.217492 -0.921019 -0.545567
v -0.327707 -0.744658 -0.354670
v -0.417040 -0.399576 -0.199942
v -0.417029 0.466582 -0.199958
v -0.327707 0.811664 -0.354670
v -0.217492 0.988045 -0.545567
v 0.972476 0.811664 -2.606652
v 0.739246 0.648667 -2.439861
v 1.147148 0.466582 -2.909195
v 0.023389 0.830251 -0.035720
v 0.102825 0.366929 -0.173305
v 0.210486 0.592311 -0.359778
v 0.373935 0.688086 -0.642881
v 0.506632 1.024777 -0.872721
v 0.506632 0.638106 -0.872721
v 0.427562 1.024777 -0.918372
v 0.427563 0.638106 -0.918372
v 0.294865 0.688086 -0.688532
v 0.131417 0.592311 -0.405429
v 0.023755 0.366929 -0.218956
v -0.055680 0.830251 -0.081371
v 0.140362 1.024777 -0.238324
v 0.061294 1.024777 -0.283974
v 0.294865 -0.633561 -0.688532
v 0.131417 -0.537785 -0.405429
v 0.210486 -0.537785 -0.359778
v 0.373935 -0.633561 -0.642881
v 0.427562 -0.583580 -0.918372
v 0.506632 -0.583580 -0.872721
v 0.427562 -0.970271 -0.918372
v 0.506632 -0.970271 -0.872721
v 0.061294 -0.970271 -0.283974
v 0.140362 -0.970271 -0.238324
v -0.055679 -0.775726 -0.081371
v 0.023389 -0.775726 -0.035720
v 0.023755 -0.312424 -0.218956
v 0.102825 -0.312424 -0.173305
v -0.515771 0.650548 0.066117
v -0.515771 0.855827 0.066117
v -0.338013 0.650548 0.168744
v -0.338013 0.855827 0.168744
vn -0.5787 0.1682 0.7980
vn 0.2949 -0.2271 0.9281
vn 0.1479 0.5000 0.8533
vn 0.7847 0.4829 0.3887
vn -0.2214 0.9070 0.3581
vn 0.5795 -0.6513 0.4899
vn -0.4002 -0.7064 0.5838
vn 0.7797 0.4751 -0.4078
vn 0.0977 0.8735 -0.4769
vn 0.8107 -0.5853 -0.0106
vn 0.0764 -0.9689 -0.2353
vn 0.0914 -0.2621 -0.9607
vn -0.8828 0.4447 0.1511
vn -0.5569 -0.8175 0.1471
vn -0.0551 -0.4080 0.9113
vn 0.3865 0.4848 0.7846
vn -0.9325 0.3021 -0.1979
vn -0.6386 -0.5816 0.5039
vn 0.1255 -0.5146 0.8482
vn 0.3164 -0.7471 0.5847
vn 0.3359 -0.3999 0.8528
vn 0.8076 0.5467 0.2213
vn 0.0796 -0.0732 0.9941
vn 0.4318 0.2476 0.8673
vn -0.9020 0.0736 0.4255
vn -0.9410 0.3385 0.0053
vn 0.4481 0.6013 0.6615
vn -0.8616 0.4691 -0.1938
vn 0.4306 0.3783 0.8194
vn 0.7540 -0.5762 0.3153
vn -0.4872 -0.6467 -0.5868
vn -0.7268 -0.6756 0.1234
vn -0.9379 -0.2942 0.1839
vn 0.8067 0.5273 -0.2668
vn 0.9649 0.1218 -0.2328
vn 0.9486 -0.2430 -0.2028
vn 0.5913 -0.7141 -0.3747
vn 0.0888 -0.6028 -0.7929
vn -0.4019 -0.1053 -0.9096
vn -0.2916 0.2427 -0.9252
vn -0.2139 0.6195 -0.7553
vn -0.6440 0.5751 -0.5044
vn -0.4352 0.3831 0.8147
vn -0.9855 0.1088 0.1301
vn -0.4679 -0.2399 0.8506
vn -0.3969 -0.7885 0.4699
vn -0.7081 -0.6878 -0.1599
vn -0.9535 0.0039 -0.3014
vn -0.7034 0.6932 -0.1571
vn -0.1045 0.9765 0.1886
vn -0.8887 -0.1365 -0.4377
vn -0.7215 0.6025 -0.3412
vn -0.1508 0.9885 -0.0117
vn 0.4891 0.7955 0.3578
vn -0.1112 -0.9765 0.1848
vn -0.0064 -0.3208 0.9471
vn -0.0746 0.1298 0.9887
vn -0.1719 -0.0000 0.9851
vn -0.2621 0.0826 0.9615
vn -0.0702 0.4003 0.9137
vn -0.2085 0.7885 0.5787
vn 0.4925 0.6877 0.5334
vn 0.8234 0.1364 0.5508
vn 0.7378 -0.0039 0.6750
vn 0.6562 -0.6025 0.4543
vn 0.4877 -0.6932 0.5306
vn 0.0855 -0.9885 0.1248
vn -0.5544 -0.7955 -0.2447
vn 0.3801 -0.1089 0.9185
vn 0.4215 -0.5696 0.7057
vn 0.2395 -0.9419 0.2354
vn 0.8544 -0.4562 0.2488
vn 0.4980 0.0447 0.8660
vn -0.1474 -0.3981 0.9054
vn 0.8931 0.4115 0.1817
vn 0.9684 -0.0619 -0.2416
vn 0.6684 -0.5438 -0.5075
vn -0.3369 0.4003 -0.8522
vn -0.0825 0.8578 -0.5073
vn 0.7104 0.3982 -0.5803
vn 0.1894 0.0841 -0.9783
vn -0.5204 -0.2117 -0.8273
vn -0.0096 -0.7737 -0.6335
vn -0.5907 -0.6934 -0.4125
vn -0.4806 -0.8578 0.1822
vn -0.9543 -0.2892 -0.0758
vn -0.7525 -0.0841 0.6532
vn -0.9374 0.2931 0.1879
vn -0.1053 0.5438 0.8326
vn -0.5534 0.7737 0.3084
vn 0.4752 0.6315 0.6127
vn -0.7709 0.5010 -0.3934
vn 0.3236 0.9419 0.0897
vn -0.8910 -0.1650 -0.4229
vn -0.9824 -0.0503 -0.1797
vn -0.9535 0.0716 -0.2928
vn -0.9572 -0.2225 -0.1854
vn -0.5097 0.7247 -0.4636
vn -0.8322 0.1676 -0.5286
vn -0.8437 0.3627 -0.3957
vn -0.9362 0.2085 -0.2829
vn -0.7949 -0.0762 -0.6020
vn -0.7795 -0.2160 -0.5879
vn -0.7850 -0.3639 -0.5014
vn -0.7547 0.0533 -0.6539
vn -0.4661 -0.2601 -0.8456
vn -0.4739 -0.5712 -0.6702
vn -0.5153 -0.7368 -0.4378
vn -0.7057 -0.7007 -0.1050
vn -0.8735 -0.4595 0.1610
vn -0.9430 -0.1579 0.2930
vn -0.9345 0.1953 0.2977
vn -0.8564 0.4913 0.1587
vn -0.6771 0.7232 -0.1360
vn -0.4786 0.5407 -0.6918
vn -0.7421 0.2341 -0.6281
vn -0.4692 0.1936 -0.8616
vn 0.4643 0.0254 0.8853
vn 0.5472 -0.8364 0.0327
vn 0.6727 -0.7393 -0.0320
vn 0.6093 -0.6979 0.3763
vn 0.8280 0.5345 0.1694
vn 0.7733 -0.4285 -0.4673
vn 0.0547 0.4083 -0.9112
vn -0.4930 -0.6839 -0.5378
vn -0.4354 -0.8187 -0.3743
vn -0.2460 -0.6631 -0.7069
vn -0.8657 -0.5006 0.0046
vn -0.7262 0.4454 0.5236
vn 0.0753 0.8424 0.5336
vn -0.8085 0.4815 -0.3384
vn -0.4355 0.8187 -0.3743
vn -0.2460 0.6631 -0.7069
vn 0.6727 0.7393 -0.0320
vn 0.6093 0.6979 0.3763
vn -0.4930 0.6839 -0.5378
vn 0.7733 0.4286 -0.4673
vn 0.0547 -0.4083 -0.9112
vn 0.8280 -0.5345 0.1694
vn -0.8085 -0.4815 -0.3384
vn 0.0752 -0.8424 0.5336
vn -0.7262 -0.4454 0.5236
vn 0.4643 -0.0254 0.8853
vn -0.8651 0.5015 0.0081
vn 0.5472 0.8364 0.0328
vn -0.2563 -0.1738 0.9509
vt 0.891300 0.598800
vt 0.735700 0.598800
vt 0.953200 0.563700
vt 0.984900 0.164800
vt 0.984900 0.520300
vt 0.642100 0.520300
vt 0.673700 0.563700
vt 0.891300 0.011400
vt 0.953200 0.080000
vt 0.673700 0.080000
vt 0.642100 0.164800
vt 0.735700 0.011400
vt 0.101100 0.354900
vt 0.005100 0.354900
vt 0.025700 0.339600
vt 0.344800 0.339600
vt 0.365600 0.354900
vt 0.267200 0.354900
vt 0.277500 0.339600
vt 0.277100 0.337900
vt 0.237800 0.298700
vt 0.344800 0.115300
vt 0.184200 0.284300
vt 0.130600 0.298700
vt 0.184100 0.292400
vt 0.139900 0.308700
vt 0.091300 0.337900
vt 0.101500 0.353000
vt 0.090800 0.339600
vt 0.025700 0.115300
vt 0.005100 0.101500
vt 0.266800 0.353000
vt 0.228400 0.308700
vt 0.309900 0.059400
vt 0.262100 0.031200
vt 0.108400 0.031200
vt 0.060700 0.059400
vt 0.044500 0.038300
vt 0.098500 0.006400
vt 0.272100 0.006400
vt 0.326100 0.038300
vt 0.365600 0.101500
vt 0.140100 0.390600
vt 0.119400 0.393000
vt 0.104200 0.397700
vt 0.104200 0.416500
vt 0.132500 0.416500
vt 0.132700 0.416400
vt 0.206800 0.390600
vt 0.149700 0.413100
vt 0.227500 0.393000
vt 0.242700 0.397700
vt 0.173000 0.411900
vt 0.196300 0.413100
vt 0.242700 0.416500
vt 0.213300 0.416400
vt 0.213500 0.416500
vt 0.563600 0.039000
vt 0.563600 0.064600
vt 0.563600 0.090100
vt 0.563600 0.100600
vt 0.533200 0.098400
vt 0.533200 0.064600
vt 0.533200 0.030800
vt 0.533200 0.016800
vt 0.379100 0.064600
vt 0.379100 0.023600
vt 0.379100 0.006600
vt 0.533200 0.112400
vt 0.563600 0.028500
vt 0.379100 0.105600
vt 0.379100 0.122500
vt 0.761200 0.936200
vt 0.750300 0.895300
vt 0.761200 0.854400
vt 0.832100 0.977200
vt 0.791200 0.966200
vt 0.903000 0.854400
vt 0.832100 0.813500
vt 0.791200 0.824400
vt 0.882000 0.808800
vt 0.918600 0.845400
vt 0.873000 0.824400
vt 0.832100 0.795500
vt 0.782200 0.808800
vt 0.745600 0.845400
vt 0.732300 0.895300
vt 0.745600 0.945200
vt 0.782200 0.981800
vt 0.832100 0.995200
vt 0.882000 0.981800
vt 0.873000 0.966200
vt 0.918600 0.945200
vt 0.903000 0.936200
vt 0.932000 0.895300
vt 0.914000 0.895300
vt 0.421500 0.477900
vt 0.465300 0.511400
vt 0.538100 0.511400
vt 0.436400 0.496400
vt 0.603200 0.280000
vt 0.581900 0.298200
vt 0.581900 0.477900
vt 0.567100 0.496400
vt 0.465300 0.232600
vt 0.436300 0.262000
vt 0.421500 0.298200
vt 0.538100 0.232600
vt 0.455700 0.197100
vt 0.419000 0.234200
vt 0.400300 0.280000
vt 0.400300 0.487200
vt 0.419000 0.510600
vt 0.455700 0.529600
vt 0.547800 0.529600
vt 0.584400 0.510600
vt 0.603200 0.487200
vt 0.584400 0.234200
vt 0.567100 0.262000
vt 0.547800 0.197100
vt 0.443100 0.129200
vt 0.396500 0.180900
vt 0.372600 0.244700
vt 0.372600 0.512600
vt 0.396500 0.545200
vt 0.443100 0.571700
vt 0.560300 0.571700
vt 0.607000 0.545200
vt 0.630900 0.512600
vt 0.630900 0.244700
vt 0.607000 0.180900
vt 0.560300 0.129200
vt 0.192800 0.427500
vt 0.207200 0.424700
vt 0.212500 0.420900
vt 0.153200 0.427500
vt 0.173000 0.428500
vt 0.133500 0.420900
vt 0.138700 0.424700
vt 0.153200 0.414300
vt 0.192800 0.414300
vt 0.207200 0.417100
vt 0.173000 0.413200
vt 0.138700 0.417100
vt 0.948600 0.808300
vt 0.861100 0.778300
vt 0.903700 0.737600
vt 0.921700 0.675900
vt 0.985300 0.625800
vt 0.912300 0.625800
vt 0.994500 0.610400
vt 0.895900 0.610400
vt 0.906900 0.669000
vt 0.891200 0.732400
vt 0.838000 0.782500
vt 0.951500 0.823900
vt 0.985300 0.764100
vt 0.994500 0.772200
vt 0.758800 0.668800
vt 0.774500 0.732200
vt 0.762000 0.737400
vt 0.744000 0.675700
vt 0.769800 0.610200
vt 0.753400 0.625600
vt 0.671200 0.610200
vt 0.680400 0.625600
vt 0.671200 0.772000
vt 0.680400 0.763900
vt 0.714200 0.823600
vt 0.717100 0.808100
vt 0.827700 0.782200
vt 0.804600 0.778100
vt 0.242100 0.427200
vt 0.196700 0.428200
vt 0.228700 0.430300
vt 0.212300 0.425300
vt 0.218900 0.421000
vt 0.215400 0.417400
vt 0.242100 0.417400
vt 0.104600 0.427200
vt 0.131200 0.417400
vt 0.104600 0.417400
vt 0.127800 0.421000
vt 0.134400 0.425300
vt 0.149900 0.428200
vt 0.118000 0.430300
s 1
f 1/1/1 2/2/2 3/3/3
f 4/4/4 5/5/5 3/3/3
f 2/2/2 4/4/4 3/3/3
f 2/2/2 6/6/6 4/4/4
f 2/2/2 7/7/7 6/6/6
f 8/8/8 9/9/9 4/4/4
f 10/10/10 8/8/8 4/4/4
f 6/6/6 10/10/10 4/4/4
f 6/6/6 11/11/11 10/10/10
f 10/10/10 12/12/12 8/8/8
f 13/13/13 14/14/14 15/15/15
f 16/16/16 17/17/17 18/18/18
f 18/18/18 19/19/19 16/16/16
f 20/20/20 19/19/19 18/18/18
f 16/16/16 19/19/19 20/20/20
f 21/21/21 16/16/16 20/20/20
f 21/21/21 22/22/22 16/16/16
f 21/21/21 23/23/23 22/22/22
f 23/23/23 24/24/24 22/22/22
f 24/24/24 23/23/23 25/25/25
f 25/25/25 26/26/26 24/24/24
f 27/27/27 24/24/24 26/26/26
f 26/26/26 28/28/28 27/27/27
f 27/27/27 28/28/28 13/13/13
f 13/13/13 29/29/29 27/27/27
f 15/15/15 29/29/29 13/13/13
f 29/29/29 15/15/15 30/30/30
f 30/30/30 15/15/15 14/14/14
f 14/14/14 31/31/31 30/30/30
f 27/27/27 29/29/29 30/30/30
f 18/18/18 32/32/32 20/20/20
f 21/21/21 20/20/20 32/32/32
f 32/32/32 33/33/33 21/21/21
f 23/23/23 21/21/21 33/33/33
f 33/33/33 25/25/25 23/23/23
f 24/24/24 34/34/34 22/22/22
f 24/24/24 35/35/35 34/34/34
f 24/24/24 27/27/27 35/35/35
f 27/27/27 36/36/36 35/35/35
f 27/27/27 30/30/30 36/36/36
f 30/30/30 37/37/37 36/36/36
f 37/37/37 30/30/30 31/31/31
f 31/31/31 38/38/38 37/37/37
f 36/36/36 37/37/37 38/38/38
f 38/38/38 39/39/39 36/36/36
f 35/35/35 36/36/36 39/39/39
f 39/39/39 40/40/40 35/35/35
f 34/34/34 35/35/35 40/40/40
f 40/40/40 41/41/41 34/34/34
f 22/22/22 34/34/34 41/41/41
f 41/41/41 42/42/42 22/22/22
f 16/16/16 22/22/22 42/42/42
f 42/42/42 17/17/17 16/16/16
f 39/43/39 38/44/38 31/45/31
f 14/46/14 13/47/13 31/45/31
f 13/47/13 39/43/39 31/45/31
f 13/47/13 28/48/28 39/43/39
f 28/48/28 40/49/40 39/43/39
f 28/48/28 26/50/26 40/49/40
f 26/50/26 41/51/41 40/49/40
f 26/50/26 42/52/42 41/51/41
f 26/50/26 25/53/25 42/52/42
f 25/53/25 33/54/33 42/52/42
f 33/54/33 17/55/17 42/52/42
f 33/54/33 32/56/32 17/55/17
f 32/56/32 18/57/18 17/55/17
f 43/58/43 44/59/44 45/60/45
f 46/61/46 45/60/45 47/62/47
f 48/63/48 47/62/47 45/60/45
f 45/60/45 44/59/44 48/63/48
f 49/64/49 48/63/48 44/59/44
f 44/59/44 43/58/43 49/64/49
f 50/65/50 49/64/49 43/58/43
f 47/62/47 48/63/48 51/66/51
f 52/67/52 51/66/51 48/63/48
f 48/63/48 49/64/49 52/67/52
f 53/68/53 52/67/52 49/64/49
f 49/64/49 50/65/50 53/68/53
f 54/67/54 53/68/53 50/65/50
f 47/62/47 55/69/55 46/61/46
f 56/60/56 46/61/46 55/69/55
f 46/61/46 56/60/56 45/60/45
f 43/58/43 45/60/45 143/60/57 144/58/58
f 45/60/45 56/60/56 145/60/59 143/60/57
f 57/58/60 58/70/61 43/58/43
f 43/58/43 58/70/61 50/65/50
f 59/64/62 50/65/50 58/70/61
f 50/65/50 59/64/62 54/67/54
f 60/66/63 54/67/54 59/64/62
f 59/64/62 61/63/64 60/66/63
f 62/71/65 60/66/63 61/63/64
f 61/63/64 63/62/66 62/71/65
f 64/72/67 62/71/65 63/62/66
f 63/62/66 55/69/55 64/72/67
f 65/71/68 64/72/67 55/69/55
f 55/69/55 47/62/47 65/71/68
f 51/66/51 65/71/68 47/62/47
f 58/70/61 57/58/60 59/64/62
f 61/63/64 59/64/62 57/58/60
f 57/58/60 66/59/69 61/63/64
f 63/62/66 61/63/64 66/59/69
f 66/59/69 56/60/56 63/62/66
f 55/69/55 63/62/66 56/60/56
f 56/60/56 66/59/69 57/58/60
f 67/73/70 68/74/71 69/75/72
f 70/76/73 67/73/70 69/75/72
f 70/76/73 71/77/74 67/73/70
f 70/76/73 69/75/72 72/78/75
f 69/75/72 73/79/76 72/78/75
f 69/75/72 74/80/77 73/79/76
f 75/81/78 76/82/79 72/78/75
f 72/78/75 77/83/80 75/81/78
f 73/79/76 77/83/80 72/78/75
f 77/83/80 73/79/76 78/84/81
f 79/85/82 78/84/81 73/79/76
f 73/79/76 74/80/77 79/85/82
f 80/86/83 79/85/82 74/80/77
f 74/80/77 69/75/72 80/86/83
f 81/87/84 80/86/83 69/75/72
f 69/75/72 68/74/71 81/87/84
f 82/88/85 81/87/84 68/74/71
f 68/74/71 67/73/70 82/88/85
f 83/89/86 82/88/85 67/73/70
f 67/73/70 71/77/74 83/89/86
f 84/90/87 83/89/86 71/77/74
f 71/77/74 70/76/73 84/90/87
f 85/91/88 84/90/87 70/76/73
f 70/76/73 86/92/89 85/91/88
f 78/84/81 75/81/78 77/83/80
f 87/93/90 85/91/88 86/92/89
f 86/92/89 88/94/91 87/93/90
f 89/95/92 87/93/90 88/94/91
f 88/94/91 90/96/93 89/95/92
f 76/82/79 89/95/92 90/96/93
f 90/96/93 72/78/75 76/82/79
f 90/96/93 88/94/91 72/78/75
f 88/94/91 70/76/73 72/78/75
f 88/94/91 86/92/89 70/76/73
f 91/97/94 92/98/95 93/99/96
f 91/97/94 94/100/97 92/98/95
f 95/101/98 96/102/99 97/103/100
f 98/104/101 97/103/100 96/102/99
f 93/99/96 98/104/101 96/102/99
f 99/105/102 93/99/96 96/102/99
f 99/105/102 91/97/94 93/99/96
f 99/105/102 100/106/103 91/97/94
f 100/106/103 101/107/104 91/97/94
f 102/108/105 99/105/102 96/102/99
f 103/109/106 99/105/102 102/108/105
f 99/105/102 103/109/106 104/110/107
f 104/110/107 100/106/103 99/105/102
f 100/106/103 104/110/107 105/111/108
f 105/111/108 101/107/104 100/106/103
f 101/107/104 105/111/108 106/112/109
f 106/112/109 91/97/94 101/107/104
f 91/97/94 106/112/109 107/113/110
f 107/113/110 94/100/97 91/97/94
f 94/100/97 107/113/110 108/114/111
f 108/114/111 92/98/95 94/100/97
f 92/98/95 108/114/111 109/115/112
f 109/115/112 93/99/96 92/98/95
f 93/99/96 109/115/112 110/116/113
f 110/116/113 98/104/101 93/99/96
f 98/104/101 110/116/113 111/117/114
f 111/117/114 97/103/100 98/104/101
f 97/103/100 111/117/114 95/101/98
f 96/102/99 95/101/98 112/118/115
f 112/118/115 113/119/116 96/102/99
f 102/108/105 96/102/99 113/119/116
f 114/120/117 102/108/105 113/119/116
f 102/108/105 114/120/117 103/109/106
f 12/121/12 103/109/106 114/120/117
f 103/109/106 12/121/12 10/122/10
f 10/122/10 104/110/107 103/109/106
f 104/110/107 10/122/10 11/123/11
f 11/123/11 105/111/108 104/110/107
f 105/111/108 11/123/11 6/124/6
f 6/124/6 106/112/109 105/111/108
f 106/112/109 6/124/6 7/125/7
f 7/125/7 107/113/110 106/112/109
f 107/113/110 7/125/7 2/126/2
f 2/126/2 108/114/111 107/113/110
f 108/114/111 2/126/2 1/127/1
f 1/127/1 109/115/112 108/114/111
f 113/119/116 112/118/115 114/120/117
f 109/115/112 1/127/1 3/128/3
f 3/128/3 110/116/113 109/115/112
f 110/116/113 3/128/3 5/129/5
f 5/129/5 111/117/114 110/116/113
f 111/117/114 5/129/5 4/130/4
f 4/130/4 95/101/98 111/117/114
f 95/101/98 4/130/4 9/131/9
f 9/131/9 112/118/115 95/101/98
f 112/118/115 9/131/9 8/132/8
f 8/132/8 114/120/117 112/118/115
f 114/120/117 8/132/8 12/121/12
f 85/133/88 87/134/90 89/135/92
f 83/136/86 85/133/88 89/135/92
f 83/136/86 84/137/87 85/133/88
f 81/138/84 82/139/85 83/136/86
f 79/140/82 81/138/84 83/136/86
f 79/140/82 83/136/86 89/135/92
f 75/141/78 79/140/82 89/135/92
f 76/142/79 75/141/78 89/135/92
f 75/141/78 78/143/81 79/140/82
f 79/140/82 80/144/83 81/138/84
f 115/145/118 116/146/119 117/147/120
f 115/145/118 117/147/120 118/148/121
f 115/145/118 118/148/121 119/149/122
f 118/148/121 120/150/123 119/149/122
f 121/151/124 119/149/122 120/150/123
f 120/150/123 122/152/125 121/151/124
f 122/152/125 120/150/123 118/148/121
f 118/148/121 123/153/126 122/152/125
f 123/153/126 118/148/121 117/147/120
f 117/147/120 124/154/127 123/153/126
f 124/154/127 117/147/120 116/146/119
f 116/146/119 125/155/128 124/154/127
f 125/155/128 116/146/119 115/145/118
f 115/145/118 126/156/129 125/155/128
f 126/156/129 115/145/118 127/157/130
f 127/157/130 128/158/131 126/156/129
f 128/158/131 127/157/130 119/149/122
f 119/149/122 121/151/124 128/158/131
f 115/145/118 119/149/122 127/157/130
f 129/159/132 130/160/133 131/161/134
f 131/161/134 132/162/135 129/159/132
f 133/163/136 129/159/132 132/162/135
f 132/162/135 134/164/137 133/163/136
f 135/165/138 133/163/136 134/164/137
f 134/164/137 136/166/139 135/165/138
f 137/167/140 135/165/138 136/166/139
f 136/166/139 138/168/141 137/167/140
f 139/169/142 137/167/140 138/168/141
f 138/168/141 140/170/143 139/169/142
f 141/171/144 139/169/142 140/170/143
f 140/170/143 142/172/145 141/171/144
f 130/160/133 141/171/144 142/172/145
f 142/172/145 131/161/134 130/160/133
f 140/170/143 131/161/134 142/172/145
f 140/170/143 132/162/135 131/161/134
f 140/170/143 136/166/139 132/162/135
f 136/166/139 134/164/137 132/162/135
f 140/170/143 138/168/141 136/166/139
f 128/173/131 125/174/128 126/175/129
f 128/173/131 124/176/127 125/174/128
f 128/173/131 123/177/126 124/176/127
f 128/173/131 122/178/125 123/177/126
f 128/173/131 121/179/124 122/178/125
f 137/180/140 133/181/136 135/182/138
f 137/180/140 129/183/132 133/181/136
f 137/180/140 130/184/133 129/183/132
f 137/180/140 141/185/144 130/184/133
f 137/180/140 139/186/142 141/185/144
f 145/60/59 146/58/146 143/60/57
f 146/58/146 144/58/58 143/60/57
f 57/58/60 43/58/43 144/58/58 146/58/146
f 56/60/56 57/58/60 146/58/146 145/60/59
