# Blender 4.1.0
# www.blender.org
o flipscreen
v -0.013413 -0.850897 3.144538
v -0.013425 -1.051338 2.614733
v -0.013424 -1.051338 0.362178
v -0.013425 1.118344 2.614733
v -0.013422 0.525703 3.573930
v -0.013413 0.917903 3.144538
v -0.013422 -0.458697 3.573930
v -0.013435 -0.850897 0.087889
v -0.013415 -0.458697 -0.134414
v -0.013435 0.917903 0.087889
v -0.013424 1.118344 0.362178
v -0.013416 0.525703 -0.134414
v -0.560566 0.788085 2.249327
v -0.560580 0.648667 0.377096
v -0.560566 0.375858 0.235871
v -0.560569 0.788085 0.551346
v -0.560574 0.375858 2.858706
v -0.560572 0.648667 2.585938
v -0.560574 -0.308852 2.858706
v -0.560569 -0.721061 0.551346
v -0.560566 -0.308852 0.235871
v -0.560579 -0.581640 0.377096
v -0.560572 -0.581640 2.585938
v -0.560566 -0.721061 2.249327
v -0.441983 0.988045 2.418011
v -0.441974 0.811664 2.843796
v -0.441972 0.466582 3.188869
v -0.441972 -0.399576 3.188869
v -0.441974 -0.744658 2.843796
v -0.441983 -0.921019 2.418011
v -0.441976 -0.921019 0.464019
v -0.441976 -0.744658 0.243591
v -0.441972 -0.399576 0.064936
v -0.441971 0.466582 0.064936
v -0.441976 0.811664 0.243591
v -0.441976 0.988045 0.464019
vn 0.6971 -0.5828 0.4176
vn -0.0510 -0.9683 0.2446
vn 0.7468 -0.6513 -0.1345
vn 0.8740 0.4827 0.0563
vn 0.4726 0.4710 0.7448
vn -0.1525 0.8714 0.4662
vn -0.3952 -0.2604 0.8809
vn -0.0547 -0.7063 -0.7058
vn 0.7195 -0.2271 -0.6563
vn 0.5547 0.5000 -0.6650
vn -0.0126 0.9071 -0.4208
vn -0.1022 0.1681 -0.9805
vn -0.9850 0.1675 0.0422
vn -0.9522 0.2085 -0.2232
vn -0.9722 0.0716 -0.2232
vn -0.9285 0.3627 -0.0792
vn -0.9801 0.0533 0.1911
vn -0.9564 0.2340 0.1749
vn -0.9892 -0.0762 0.1254
vn -0.9831 -0.1651 -0.0792
vn -0.9407 -0.0502 -0.3356
vn -0.9216 -0.2225 -0.3180
vn -0.9689 -0.2160 0.1208
vn -0.9305 -0.3639 0.0422
vn -0.6732 0.7245 0.1483
vn -0.7594 0.5397 0.3634
vn -0.8348 0.1932 0.5156
vn -0.8242 -0.2592 0.5035
vn -0.7446 -0.5702 0.3471
vn -0.6650 -0.7366 0.1229
vn -0.6636 -0.7007 -0.2619
vn -0.6760 -0.4595 -0.5761
vn -0.6701 -0.1579 -0.7253
vn -0.6605 0.1953 -0.7250
vn -0.6623 0.4913 -0.5656
vn -0.6543 0.7233 -0.2208
vt 0.042400 0.927500
vt 0.009600 0.852000
vt 0.009600 0.531000
vt 0.364600 0.852000
vt 0.267700 0.988600
vt 0.331800 0.927500
vt 0.106600 0.988600
vt 0.042400 0.491900
vt 0.106600 0.460200
vt 0.331800 0.491900
vt 0.364600 0.531000
vt 0.267700 0.460200
vt 0.434000 0.854100
vt 0.450700 0.661400
vt 0.483000 0.646900
vt 0.434200 0.679300
vt 0.482600 0.916900
vt 0.450400 0.888800
vt 0.563600 0.917000
vt 0.612600 0.679500
vt 0.563900 0.647000
vt 0.596200 0.661600
vt 0.595900 0.888900
vt 0.612400 0.854300
vt 0.410300 0.864800
vt 0.431100 0.908700
vt 0.471900 0.944200
vt 0.574300 0.944300
vt 0.615200 0.908900
vt 0.636100 0.865100
vt 0.636300 0.664000
vt 0.615500 0.641200
vt 0.574700 0.622800
vt 0.472300 0.622700
vt 0.431500 0.641000
vt 0.410600 0.663700
vt 0.386000 0.881800
vt 0.411300 0.940100
vt 0.460800 0.987500
vt 0.585400 0.987600
vt 0.635100 0.940400
vt 0.660500 0.882100
vt 0.660800 0.634000
vt 0.635500 0.603800
vt 0.585900 0.579200
vt 0.461300 0.579100
vt 0.411700 0.603500
vt 0.386300 0.633700
s 1
f 1/1/1 2/2/2 3/3/3
f 4/4/4 1/1/1 3/3/3
f 4/4/4 5/5/5 1/1/1
f 4/4/4 6/6/6 5/5/5
f 5/5/5 7/7/7 1/1/1
f 3/3/3 8/8/8 9/9/9
f 4/4/4 3/3/3 9/9/9
f 10/10/10 4/4/4 9/9/9
f 10/10/10 11/11/11 4/4/4
f 12/12/12 10/10/10 9/9/9
f 13/13/13 14/14/14 15/15/15
f 13/13/13 16/16/16 14/14/14
f 17/17/17 18/18/18 13/13/13
f 17/17/17 13/13/13 19/19/19
f 13/13/13 15/15/15 19/19/19
f 15/15/15 20/20/20 19/19/19
f 15/15/15 21/21/21 20/20/20
f 21/21/21 22/22/22 20/20/20
f 20/20/20 23/23/23 19/19/19
f 20/20/20 24/24/24 23/23/23
f 16/16/16 13/13/13 25/25/25
f 26/26/26 25/25/25 13/13/13
f 13/13/13 18/18/18 26/26/26
f 27/27/27 26/26/26 18/18/18
f 18/18/18 17/17/17 27/27/27
f 28/28/28 27/27/27 17/17/17
f 17/17/17 19/19/19 28/28/28
f 29/29/29 28/28/28 19/19/19
f 19/19/19 23/23/23 29/29/29
f 30/30/30 29/29/29 23/23/23
f 23/23/23 24/24/24 30/30/30
f 31/31/31 30/30/30 24/24/24
f 24/24/24 20/20/20 31/31/31
f 32/32/32 31/31/31 20/20/20
f 20/20/20 22/22/22 32/32/32
f 33/33/33 32/32/32 22/22/22
f 22/22/22 21/21/21 33/33/33
f 34/34/34 33/33/33 21/21/21
f 21/21/21 15/15/15 34/34/34
f 35/35/35 34/34/34 15/15/15
f 15/15/15 14/14/14 35/35/35
f 36/36/36 35/35/35 14/14/14
f 14/14/14 16/16/16 36/36/36
f 25/25/25 36/36/36 16/16/16
f 36/36/36 25/25/25 4/37/4
f 6/38/6 4/37/4 25/25/25
f 25/25/25 26/26/26 6/38/6
f 5/39/5 6/38/6 26/26/26
f 26/26/26 27/27/27 5/39/5
f 7/40/7 5/39/5 27/27/27
f 27/27/27 28/28/28 7/40/7
f 1/41/1 7/40/7 28/28/28
f 28/28/28 29/29/29 1/41/1
f 2/42/2 1/41/1 29/29/29
f 29/29/29 30/30/30 2/42/2
f 3/43/3 2/42/2 30/30/30
f 30/30/30 31/31/31 3/43/3
f 8/44/8 3/43/3 31/31/31
f 31/31/31 32/32/32 8/44/8
f 9/45/9 8/44/8 32/32/32
f 32/32/32 33/33/33 9/45/9
f 12/46/12 9/45/9 33/33/33
f 33/33/33 34/34/34 12/46/12
f 10/47/10 12/46/12 34/34/34
f 34/34/34 35/35/35 10/47/10
f 11/48/11 10/47/10 35/35/35
f 35/35/35 36/36/36 11/48/11
f 4/37/4 11/48/11 36/36/36
