# Blender 3.4.0
# www.blender.org
mtllib MamagenNose.mtl
o mamagen.2293
v -2.290479 -0.385734 22.003948
v -2.291217 -0.373068 21.908051
v -2.321107 -0.368906 22.030157
v -2.263682 -0.400591 21.982021
v -2.249718 -0.422051 22.044422
v -2.283599 -0.403123 22.072470
v -2.300782 -0.377598 22.110575
v -2.255138 -0.399588 22.151999
v -2.237305 -0.421236 22.125370
v -2.191346 -0.417468 22.176014
v -2.179335 -0.431474 22.159225
v -2.114984 -0.450599 22.180450
v -2.167390 -0.445330 22.142382
v -2.217760 -0.440196 22.104923
v -2.167390 0.445326 22.142382
v -2.179335 0.431470 22.159225
v -2.237305 0.421232 22.125370
v -2.217760 0.440192 22.104923
v -2.114984 0.450595 22.180450
v -2.191346 0.417464 22.176014
v -2.255138 0.399584 22.151999
v -2.283599 0.403119 22.072470
v -2.300782 0.377594 22.110575
v -2.290479 0.385731 22.003948
v -2.321107 0.368902 22.030157
v -2.291217 0.373065 21.908051
v -2.263682 0.400588 21.982021
v -2.249718 0.422047 22.044422
vn -0.5510 -0.8262 -0.1173
vn -0.6021 -0.7935 -0.0886
vn -0.5509 -0.8263 -0.1173
vn -0.6430 -0.7615 -0.0813
vn -0.6780 -0.7281 0.1004
vn -0.5470 -0.8367 -0.0257
vn -0.5897 -0.8055 0.0589
vn -0.5052 -0.8060 0.3083
vn -0.4902 -0.8247 0.2822
vn -0.3622 -0.8395 0.4052
vn -0.3621 -0.8395 0.4052
vn -0.3621 -0.8395 0.4051
vn -0.4304 -0.8692 0.2434
vn -0.3620 0.8395 0.4052
vn -0.4902 0.8247 0.2822
vn -0.4486 0.8666 0.2186
vn -0.3621 0.8395 0.4052
vn -0.5052 0.8061 0.3083
vn -0.6159 0.7846 0.0710
vn -0.5836 0.7824 0.2175
vn -0.5703 0.8178 -0.0773
vn -0.6274 0.7784 0.0218
vn -0.5468 0.8306 -0.1055
vn -0.5505 0.8225 -0.1430
vn -0.5727 0.8196 -0.0142
vt 0.492393 0.826485
vt 0.509401 0.836033
vt 0.491562 0.817818
vt 0.492548 0.834274
vt 0.479236 0.831224
vt 0.478870 0.821624
vt 0.475663 0.812401
vt 0.462953 0.816030
vt 0.465177 0.823420
vt 0.450721 0.823296
vt 0.451794 0.828149
vt 0.439734 0.836033
vt 0.452535 0.833183
vt 0.464969 0.830532
vt 0.426557 0.833183
vt 0.427292 0.828152
vt 0.413949 0.823423
vt 0.414123 0.830532
vt 0.439359 0.836033
vt 0.428372 0.823296
vt 0.416139 0.816031
vt 0.400235 0.821610
vt 0.403430 0.812401
vt 0.386697 0.826480
vt 0.387531 0.817818
vt 0.369692 0.836033
vt 0.386546 0.834274
vt 0.399857 0.831224
s 1
usemtl no_material
f 4/4/1 1/1/2 2/2/3
f 1/1/2 3/3/4 2/2/3
f 1/1/2 7/7/5 3/3/4
f 5/5/6 1/1/2 4/4/1
f 5/5/6 6/6/7 1/1/2
f 1/1/2 6/6/7 7/7/5
f 6/6/7 8/8/8 7/7/5
f 6/6/7 9/9/9 8/8/8
f 9/9/9 10/10/10 8/8/8
f 9/9/9 11/11/11 10/10/10
f 11/11/11 12/12/12 10/10/10
f 13/13/12 12/12/12 11/11/11
f 13/13/12 9/9/9 14/14/13
f 13/13/12 11/11/11 9/9/9
f 5/5/6 14/14/13 9/9/9
f 5/5/6 9/9/9 6/6/7
f 15/15/14 16/16/14 19/19/14
f 15/15/14 17/17/15 16/16/14
f 15/15/14 18/18/16 17/17/15
f 16/16/14 20/20/17 19/19/14
f 17/17/15 20/20/17 16/16/14
f 17/17/15 21/21/18 20/20/17
f 22/22/19 23/23/20 21/21/18
f 22/22/19 21/21/18 17/17/15
f 24/24/21 23/23/20 22/22/19
f 24/24/21 25/25/22 23/23/20
f 24/24/21 26/26/23 25/25/22
f 27/27/24 26/26/23 24/24/21
f 28/28/25 27/27/24 24/24/21
f 28/28/25 17/17/15 18/18/16
f 28/28/25 22/22/19 17/17/15
f 28/28/25 24/24/21 22/22/19
