# Blender 3.4.1
# www.blender.org
o mamagen.2257
v -1.182650 0.704447 22.787052
v -1.272086 0.636605 22.751352
v -1.210050 0.693007 22.556273
v -1.118431 0.747846 22.597557
v -1.042196 0.797873 22.629740
v -1.097773 0.772416 22.791010
v -1.007604 0.829464 22.780054
v -0.976166 0.840810 22.668243
v -0.920000 0.876911 22.725183
v -0.937936 0.871914 22.751125
v -0.897328 0.886422 22.678507
v -0.932190 0.854916 22.559017
v -0.972547 0.820339 22.463394
v -1.047618 0.773288 22.389557
v -1.150488 0.720626 22.337923
v -1.308530 0.654578 22.504858
v -1.254625 0.670146 22.312138
v -1.349739 0.634147 22.317205
v -1.387594 0.625347 22.454971
v -1.433852 0.611377 22.405273
v -1.403913 0.614642 22.329048
v -1.437013 0.601576 22.325756
v -1.453944 0.597674 22.349630
v -1.479790 0.591115 22.323277
v -1.472789 0.592611 22.371250
v -1.460339 0.585528 22.475039
v -1.424211 0.583571 22.577997
v -1.352038 0.585771 22.674591
v -0.897328 -0.886427 22.678507
v -0.920000 -0.876916 22.725183
v -0.937936 -0.871918 22.751125
v -1.007604 -0.829469 22.780054
v -0.976166 -0.840815 22.668243
v -1.042196 -0.797877 22.629740
v -1.097773 -0.772420 22.791010
v -1.182650 -0.704451 22.787052
v -1.118431 -0.747851 22.597557
v -1.210050 -0.693012 22.556273
v -1.272086 -0.636609 22.751352
v -1.352038 -0.585775 22.674591
v -1.308530 -0.654582 22.504858
v -1.387594 -0.625351 22.454971
v -1.424211 -0.583576 22.577997
v -1.460339 -0.585533 22.475039
v -1.433852 -0.611381 22.405273
v -1.453944 -0.597678 22.349630
v -1.472789 -0.592615 22.371250
v -1.479790 -0.591119 22.323277
v -1.437013 -0.601580 22.325756
v -1.403913 -0.614646 22.329048
v -1.349739 -0.634151 22.317205
v -1.254625 -0.670150 22.312138
v -1.150488 -0.720630 22.337923
v -1.047618 -0.773292 22.389557
v -0.972547 -0.820343 22.463394
v -0.932190 -0.854921 22.559017
vn -0.5727 0.8196 -0.0142
vn -0.5043 0.8630 0.0295
vn -0.5364 0.8372 0.1064
vn -0.5324 0.8450 -0.0506
vn -0.5702 0.8178 -0.0773
vn -0.5321 0.8446 -0.0594
vn -0.5245 0.8501 -0.0470
vn -0.4720 0.8780 -0.0802
vn -0.5375 0.8177 -0.2060
vn -0.4943 0.8653 -0.0829
vn -0.4442 0.8943 -0.0535
vn -0.4999 0.8619 -0.0848
vn -0.4752 0.8776 -0.0625
vn -0.4176 0.9083 -0.0249
vn -0.4207 0.9028 0.0896
vn -0.3849 0.9215 -0.0527
vn -0.3425 0.9394 -0.0133
vn -0.3805 0.9219 0.0724
vn -0.4027 0.9146 0.0362
vn -0.3299 0.9428 -0.0483
vn -0.3118 0.9468 -0.0795
vn -0.3350 0.9422 -0.0109
vn -0.2488 0.9685 -0.0137
vn -0.3396 0.9371 0.0800
vn -0.3831 0.8966 0.2222
vn -0.3676 0.9102 0.1906
vn -0.4763 0.8683 0.1385
vn -0.4997 -0.8626 -0.0792
vn -0.4802 -0.8758 -0.0482
vn -0.5415 -0.8114 -0.2201
vn -0.4904 -0.8662 -0.0959
vn -0.5295 -0.8457 -0.0671
vn -0.5470 -0.8367 -0.0256
vn -0.5721 -0.8201 0.0109
vn -0.5040 -0.8632 0.0302
vn -0.5566 -0.8278 0.0710
vn -0.4762 -0.8684 0.1385
vn -0.4096 -0.9097 0.0690
vn -0.3784 -0.9208 0.0945
vn -0.3703 -0.9124 0.1742
vn -0.4419 -0.8934 0.0808
vn -0.4280 -0.9037 0.0136
vn -0.3201 -0.9474 -0.0030
vn -0.3395 -0.9372 0.0804
vn -0.2488 -0.9685 -0.0136
vn -0.3118 -0.9468 -0.0794
vn -0.3157 -0.9485 -0.0261
vn -0.3855 -0.9227 -0.0099
vn -0.4185 -0.9069 -0.0496
vn -0.4765 -0.8786 -0.0312
vn -0.4980 -0.8615 -0.0992
vn -0.5113 -0.8505 -0.1235
vn -0.4671 -0.8828 -0.0503
vt 0.201430 0.837884
vt 0.225055 0.837887
vt 0.220288 0.795336
vt 0.200755 0.796118
vt 0.182491 0.796851
vt 0.180332 0.832196
vt 0.160514 0.823730
vt 0.164173 0.799216
vt 0.147363 0.806706
vt 0.144837 0.818935
vt 0.143787 0.795665
vt 0.158800 0.776518
vt 0.174545 0.761174
vt 0.195900 0.752209
vt 0.221083 0.749057
vt 0.239608 0.791312
vt 0.244872 0.750722
vt 0.264175 0.757549
vt 0.258361 0.787684
vt 0.271891 0.780746
vt 0.274617 0.763134
vt 0.281671 0.764554
vt 0.283061 0.770681
vt 0.288241 0.754534
vt 0.286073 0.775484
vt 0.278504 0.795095
vt 0.266364 0.813384
vt 0.247851 0.829021
vt 0.251153 0.706460
vt 0.247585 0.717485
vt 0.250104 0.729728
vt 0.234427 0.734524
vt 0.230776 0.710010
vt 0.212477 0.707656
vt 0.214608 0.742990
vt 0.193511 0.748678
vt 0.194209 0.706932
vt 0.174677 0.706167
vt 0.169886 0.748681
vt 0.147091 0.739815
vt 0.155307 0.702119
vt 0.136537 0.698505
vt 0.128577 0.724179
vt 0.116436 0.705890
vt 0.122990 0.691565
vt 0.111883 0.681480
vt 0.108868 0.686279
vt 0.106699 0.665329
vt 0.113269 0.675349
vt 0.120324 0.673929
vt 0.130765 0.668343
vt 0.150068 0.661516
vt 0.173858 0.659851
vt 0.199040 0.663004
vt 0.220396 0.671969
vt 0.236141 0.687312
s 1
f 1/1/1 3/3/2 2/2/3
f 1/1/1 4/4/4 3/3/2
f 5/5/4 4/4/4 1/1/1
f 5/5/4 1/1/1 6/6/5
f 7/7/6 5/5/4 6/6/5
f 7/7/6 8/8/7 5/5/4
f 7/7/6 9/9/8 8/8/7
f 7/7/6 10/10/9 9/9/8
f 12/12/10 9/9/8 11/11/11
f 12/12/10 8/8/7 9/9/8
f 13/13/12 8/8/7 12/12/10
f 13/13/12 5/5/4 8/8/7
f 13/13/12 4/4/4 5/5/4
f 13/13/12 14/14/13 4/4/4
f 4/4/4 14/14/13 15/15/14
f 4/4/4 15/15/14 3/3/2
f 16/16/15 3/3/2 15/15/14
f 16/16/15 15/15/14 17/17/16
f 16/16/15 17/17/16 18/18/17
f 16/16/15 18/18/17 19/19/18
f 20/20/19 19/19/18 18/18/17
f 20/20/19 18/18/17 21/21/20
f 20/20/19 21/21/20 22/22/21
f 20/20/19 22/22/21 23/23/22
f 23/23/22 22/22/21 24/24/23
f 25/25/24 23/23/22 24/24/23
f 26/26/25 23/23/22 25/25/24
f 26/26/25 20/20/19 23/23/22
f 26/26/25 19/19/18 20/20/19
f 26/26/25 27/27/26 19/19/18
f 19/19/18 27/27/26 28/28/27
f 19/19/18 28/28/27 16/16/15
f 28/28/27 3/3/2 16/16/15
f 28/28/27 2/2/3 3/3/2
f 32/32/28 30/30/29 31/31/30
f 32/32/28 33/33/31 30/30/29
f 32/32/28 34/34/32 33/33/31
f 32/32/28 35/35/33 34/34/32
f 34/34/32 35/35/33 36/36/34
f 34/34/32 36/36/34 37/37/33
f 36/36/34 38/38/35 37/37/33
f 36/36/34 39/39/36 38/38/35
f 40/40/37 38/38/35 39/39/36
f 40/40/37 41/41/38 38/38/35
f 42/42/39 41/41/38 40/40/37
f 42/42/39 40/40/37 43/43/40
f 44/44/41 42/42/39 43/43/40
f 44/44/41 45/45/42 42/42/39
f 44/44/41 46/46/43 45/45/42
f 44/44/41 47/47/44 46/46/43
f 47/47/44 48/48/45 46/46/43
f 46/46/43 48/48/45 49/49/46
f 45/45/42 46/46/43 49/49/46
f 45/45/42 49/49/46 50/50/47
f 45/45/42 50/50/47 51/51/47
f 45/45/42 51/51/47 42/42/39
f 41/41/38 42/42/39 51/51/47
f 41/41/38 51/51/47 52/52/48
f 41/41/38 52/52/48 53/53/49
f 41/41/38 53/53/49 38/38/35
f 37/37/33 38/38/35 53/53/49
f 37/37/33 53/53/49 54/54/50
f 55/55/51 37/37/33 54/54/50
f 55/55/51 34/34/32 37/37/33
f 55/55/51 33/33/31 34/34/32
f 55/55/51 56/56/52 33/33/31
f 56/56/52 30/30/29 33/33/31
f 56/56/52 29/29/53 30/30/29
