# Blender 4.3.2
# www.blender.org
mtllib FoxLegFR.mtl
o FoxLegFR
v -4.250721 11.952526 5.343131
v -4.250721 11.957926 8.528573
v -1.065275 11.957926 8.528573
v -1.065275 11.952526 5.343131
v -4.250721 0.166388 5.363108
v -1.065275 0.166388 5.363108
v -4.250721 0.171788 8.548551
v -1.065275 0.171788 8.548551
vn -1.0000 -0.0000 -0.0000
vn -0.0000 1.0000 -0.0017
vn -0.0000 -0.0017 -1.0000
vn -0.0000 0.0017 1.0000
vn -0.0000 -1.0000 0.0017
vn 1.0000 -0.0000 -0.0000
vt 0.626504 0.881792
vt 0.610530 0.881792
vt 0.610530 0.528945
vt 0.627857 0.962661
vt 0.633757 0.962661
vt 0.627857 0.968688
vt 0.633757 0.968688
vt 0.626504 0.528945
vt 0.657502 0.880999
vt 0.657502 0.528931
vt 0.673501 0.880990
vt 0.673501 0.528923
vt 0.626501 0.528951
vt 0.641503 0.528983
vt 0.641494 0.881573
vt 0.626517 0.881534
vt 0.651933 0.976744
vt 0.651933 0.981209
vt 0.647613 0.976744
vt 0.647613 0.981209
vt 0.657544 0.881772
vt 0.657551 0.529218
vt 0.641550 0.881790
vt 0.641560 0.529166
s 0
usemtl foxmat
f 2/1/1 1/2/1 5/3/1
f 1/4/2 2/5/2 4/6/2
f 2/5/2 3/7/2 1/4/2
f 7/8/1 2/1/1 1/2/1
f 3/7/2 4/6/2 1/4/2
f 4/9/3 6/10/3 1/11/3
f 5/12/3 1/11/3 4/9/3
f 5/3/1 7/8/1 1/2/1
f 6/10/3 5/12/3 1/11/3
f 7/13/4 8/14/4 3/15/4
f 2/16/4 7/13/4 3/15/4
f 8/17/5 7/18/5 6/19/5
f 8/17/5 7/18/5 5/20/5
f 7/13/4 8/14/4 2/16/4
f 7/18/5 5/20/5 6/19/5
f 7/8/1 2/1/1 5/3/1
f 6/19/5 8/17/5 5/20/5
f 3/21/6 8/22/6 4/23/6
f 8/22/6 6/24/6 4/23/6
f 3/21/6 8/22/6 6/24/6
f 8/14/4 3/15/4 2/16/4
f 6/10/3 5/12/3 4/9/3
f 4/23/6 3/21/6 6/24/6
f 2/5/2 3/7/2 4/6/2
