# Blender 4.1.0
# www.blender.org
o SM_Flashlight_Glass
v 0.689565 -4.026167 -0.689566
v 0.900961 -4.026165 -0.373191
v 0.373190 -4.026167 -0.900961
v 0.000000 -4.026167 -0.975192
v -0.373190 -4.026167 -0.900961
v 0.975192 -4.026167 -0.000001
v 0.900960 -4.026167 0.373190
v -0.689565 -4.026167 -0.689566
v -0.900960 -4.026167 -0.373191
v -0.975191 -4.026165 -0.000000
v -0.900960 -4.026167 0.373190
v 0.373190 -4.026165 0.900960
v 0.689565 -4.026165 0.689564
v -0.689565 -4.026165 0.689564
v -0.373190 -4.026165 0.900960
v 0.000000 -4.026165 0.975192
vn -0.0000 -1.0000 -0.0000
vt 0.824219 0.696533
vt 0.860840 0.711670
vt 0.784180 0.696533
vt 0.747559 0.711670
vt 0.719727 0.739746
vt 0.889160 0.739746
vt 0.904297 0.776489
vt 0.704102 0.776489
vt 0.704102 0.816162
vt 0.719727 0.852905
vt 0.747559 0.881042
vt 0.889160 0.852905
vt 0.904297 0.816162
vt 0.784180 0.896240
vt 0.824219 0.896240
vt 0.860840 0.881042
s 1
f 1/1/1 2/2/1 3/3/1
f 3/3/1 2/2/1 4/4/1
f 4/4/1 2/2/1 5/5/1
f 6/6/1 7/7/1 2/2/1
f 7/7/1 5/5/1 2/2/1
f 8/8/1 5/5/1 9/9/1
f 9/9/1 5/5/1 10/10/1
f 10/10/1 5/5/1 11/11/1
f 12/12/1 5/5/1 7/7/1
f 11/11/1 5/5/1 12/12/1
f 13/13/1 12/12/1 7/7/1
f 11/11/1 12/12/1 14/14/1
f 14/14/1 12/12/1 15/15/1
f 16/16/1 15/15/1 12/12/1
