# Blender 4.1.1
# www.blender.org
o mal0_eyelashes
v -0.014278 -0.049574 0.047150
v -0.016516 -0.044343 0.047290
v -0.017733 -0.043731 0.049242
v -0.029804 -0.037190 0.055131
v -0.031631 -0.040636 0.057022
v -0.029031 -0.042623 0.057039
v -0.027319 -0.038946 0.054894
v -0.025801 -0.044915 0.056725
v -0.022360 -0.041823 0.053460
v -0.019964 -0.049914 0.053814
v -0.019459 -0.043098 0.051338
v -0.014734 -0.049384 0.050381
v -0.014580 -0.052104 0.048495
v -0.013782 -0.052535 0.047641
v -0.013487 -0.056118 0.049153
v -0.014010 -0.052374 0.049283
v -0.022138 -0.050123 0.056329
v -0.019053 -0.055964 0.057484
v -0.016633 -0.052339 0.052947
v -0.041327 -0.018719 0.042725
v -0.041573 -0.018348 0.038733
v -0.042054 -0.018904 0.041177
v -0.042993 -0.018516 0.043430
v -0.041380 -0.019208 0.044288
v -0.043857 -0.019386 0.045423
v -0.041357 -0.019846 0.045781
v -0.041774 -0.021456 0.048037
v -0.045595 -0.021794 0.048692
v -0.040832 -0.023991 0.050489
v -0.043845 -0.025518 0.051796
v -0.038817 -0.027244 0.052495
v -0.041136 -0.029731 0.054644
v -0.036368 -0.030756 0.054250
v -0.038032 -0.033659 0.056419
v -0.034255 -0.033286 0.054970
v -0.034826 -0.037951 0.056898
v -0.031865 -0.035563 0.055274
v -0.038032 0.033659 0.056419
v -0.034255 0.033286 0.054970
v -0.034826 0.037951 0.056898
v -0.036368 0.030756 0.054250
v -0.041136 0.029731 0.054644
v -0.038817 0.027244 0.052495
v -0.043845 0.025518 0.051796
v -0.040832 0.023991 0.050489
v -0.045595 0.021794 0.048692
v -0.041774 0.021456 0.048037
v -0.043857 0.019386 0.045423
v -0.041357 0.019846 0.045781
v -0.041380 0.019208 0.044288
v -0.042993 0.018516 0.043430
v -0.041327 0.018719 0.042725
v -0.042054 0.018904 0.041177
v -0.041573 0.018348 0.038733
v -0.014278 0.049574 0.047150
v -0.017733 0.043731 0.049242
v -0.016516 0.044343 0.047290
v -0.014580 0.052103 0.048495
v -0.013782 0.052535 0.047642
v -0.013487 0.056118 0.049153
v -0.014010 0.052374 0.049283
v -0.014734 0.049384 0.050381
v -0.019459 0.043098 0.051338
v -0.019964 0.049914 0.053814
v -0.022360 0.041823 0.053460
v -0.025801 0.044915 0.056725
v -0.027319 0.038946 0.054894
v -0.029031 0.042623 0.057039
v -0.029804 0.037190 0.055131
v -0.031631 0.040636 0.057022
v -0.031865 0.035563 0.055274
v -0.022138 0.050123 0.056329
v -0.019053 0.055964 0.057484
v -0.016633 0.052339 0.052947
vn -0.5467 0.3799 -0.7462
vn -0.8369 0.4346 -0.3327
vn -0.5726 0.3587 -0.7372
vn -0.5887 0.4823 -0.6487
vn -0.6020 0.3754 -0.7048
vn -0.5087 0.3179 -0.8001
vn -0.2455 0.3375 -0.9087
vn -0.2779 0.3715 -0.8858
vn -0.2479 0.3503 -0.9032
vn -0.2711 0.3386 -0.9010
vn -0.3007 0.3434 -0.8898
vn -0.3221 0.3498 -0.8797
vn -0.4013 0.3418 -0.8498
vn -0.5539 0.2952 -0.7785
vn -0.6922 0.3528 -0.6296
vn -0.8916 0.4196 -0.1702
vn -0.9112 0.3509 -0.2160
vn -0.8939 0.2931 0.3392
vn -0.9562 0.2761 -0.0975
vn -0.7798 0.2909 -0.5544
vn -0.7954 0.2761 -0.5396
vn 0.3167 0.9430 -0.1024
vn -0.0609 0.9955 -0.0730
vn 0.4591 0.8815 -0.1102
vn -0.1406 0.9625 -0.2321
vn -0.1361 0.9416 -0.3081
vn -0.0812 0.8488 -0.5224
vn -0.0820 0.8498 -0.5207
vn -0.0372 0.7434 -0.6678
vn -0.0356 0.7271 -0.6856
vn -0.0549 0.6328 -0.7724
vn -0.0618 0.6221 -0.7805
vn -0.1226 0.5627 -0.8175
vn -0.1471 0.5493 -0.8225
vn -0.2236 0.4806 -0.8480
vn -0.2577 0.4379 -0.8613
vn -0.2711 -0.3386 -0.9010
vn -0.2455 -0.3375 -0.9087
vn -0.3007 -0.3433 -0.8898
vn -0.2479 -0.3503 -0.9032
vn -0.2779 -0.3715 -0.8858
vn -0.2577 -0.4379 -0.8613
vn -0.2236 -0.4806 -0.8480
vn -0.1471 -0.5493 -0.8226
vn -0.1226 -0.5627 -0.8175
vn -0.0618 -0.6221 -0.7805
vn -0.0549 -0.6328 -0.7724
vn -0.0356 -0.7271 -0.6856
vn -0.0372 -0.7434 -0.6678
vn -0.0812 -0.8488 -0.5225
vn -0.0820 -0.8498 -0.5208
vn -0.1361 -0.9416 -0.3081
vn -0.1406 -0.9625 -0.2321
vn -0.0609 -0.9955 -0.0730
vn 0.3168 -0.9430 -0.1024
vn 0.4591 -0.8815 -0.1102
vn -0.8369 -0.4346 -0.3327
vn -0.5467 -0.3799 -0.7462
vn -0.5726 -0.3587 -0.7372
vn -0.5887 -0.4823 -0.6487
vn -0.6020 -0.3754 -0.7048
vn -0.5088 -0.3179 -0.8001
vn -0.9112 -0.3509 -0.2160
vn -0.8939 -0.2931 0.3392
vn -0.9562 -0.2761 -0.0975
vn -0.7798 -0.2909 -0.5544
vn -0.7954 -0.2761 -0.5396
vn -0.8916 -0.4197 -0.1702
vn -0.6922 -0.3528 -0.6296
vn -0.5539 -0.2953 -0.7785
vn -0.4013 -0.3418 -0.8498
vn -0.3221 -0.3498 -0.8797
vn -0.7954 -0.2762 -0.5395
vt 0.972862 0.760983
vt 0.974229 0.759696
vt 0.972277 0.764834
vt 0.971494 0.762271
vt 0.969979 0.764737
vt 0.968465 0.767203
vt 0.969155 0.774942
vt 0.968639 0.777134
vt 0.965769 0.774876
vt 0.966437 0.772040
vt 0.969853 0.773252
vt 0.967340 0.769851
vt 0.970721 0.771207
vt 0.973061 0.767397
vt 0.975174 0.765408
vt 0.976914 0.764217
vt 0.976698 0.761185
vt 0.975356 0.758924
vt 0.976482 0.758153
vt 0.977429 0.757509
vt 0.978377 0.756865
vt 0.978377 0.763222
vt 0.974848 0.795799
vt 0.975750 0.792785
vt 0.977948 0.797410
vt 0.973311 0.794633
vt 0.974524 0.791847
vt 0.971842 0.793551
vt 0.973365 0.791041
vt 0.971831 0.788776
vt 0.969500 0.790305
vt 0.969996 0.785724
vt 0.967340 0.786219
vt 0.968771 0.782245
vt 0.965797 0.781451
vt 0.968261 0.779041
vt 0.965275 0.777346
vt 0.979544 0.782224
vt 0.982265 0.779324
vt 0.982961 0.781015
vt 0.978878 0.779387
vt 0.981751 0.777133
vt 0.978387 0.776916
vt 0.981374 0.775224
vt 0.978913 0.772812
vt 0.981887 0.772021
vt 0.980460 0.768045
vt 0.983115 0.768544
vt 0.982623 0.763962
vt 0.984953 0.765493
vt 0.984968 0.760718
vt 0.986490 0.763230
vt 0.987649 0.762424
vt 0.986439 0.759637
vt 0.988876 0.761488
vt 0.987976 0.758473
vt 0.991474 0.759911
vt 0.987324 0.794576
vt 0.985957 0.793287
vt 0.985377 0.789436
vt 0.984591 0.791998
vt 0.983079 0.789530
vt 0.981566 0.787062
vt 0.989794 0.793089
vt 0.988449 0.795348
vt 0.989575 0.796120
vt 0.990522 0.796765
vt 0.991468 0.797410
vt 0.990013 0.790057
vt 0.988274 0.788864
vt 0.986163 0.786873
vt 0.983827 0.783061
vt 0.980445 0.784414
vt 0.991475 0.791054
s 1
f 74/1/1 62/2/2 64/3/3
f 64/3/3 73/4/4 74/1/1
f 72/5/5 73/4/4 64/3/3
f 72/5/5 64/3/3 66/6/6
f 71/7/7 39/8/8 40/9/9
f 70/10/10 71/7/7 40/9/9
f 69/11/11 71/7/7 70/10/10
f 68/12/12 69/11/11 70/10/10
f 67/13/13 69/11/11 68/12/12
f 66/6/6 67/13/13 68/12/12
f 65/14/14 67/13/13 66/6/6
f 64/3/3 65/14/14 66/6/6
f 63/15/15 65/14/14 64/3/3
f 62/2/2 63/15/15 64/3/3
f 56/16/16 63/15/15 62/2/2
f 58/17/17 56/16/16 62/2/2
f 61/18/18 58/17/17 62/2/2
f 61/18/18 60/19/19 58/17/17
f 58/17/17 60/19/19 59/20/20
f 58/17/17 59/20/20 55/21/21
f 56/16/16 58/17/17 55/21/21
f 57/22/21 56/16/16 55/21/21
f 53/23/22 52/24/23 54/25/24
f 53/23/22 51/26/25 52/24/23
f 51/26/25 50/27/26 52/24/23
f 51/26/25 48/28/27 50/27/26
f 48/28/27 49/29/28 50/27/26
f 47/30/29 49/29/28 48/28/27
f 46/31/30 47/30/29 48/28/27
f 47/30/29 46/31/30 45/32/31
f 46/31/30 44/33/32 45/32/31
f 43/34/33 45/32/31 44/33/32
f 42/35/34 43/34/33 44/33/32
f 41/36/35 43/34/33 42/35/34
f 38/37/36 41/36/35 42/35/34
f 39/8/8 41/36/35 38/37/36
f 40/9/9 39/8/8 38/37/36
f 5/38/37 37/39/38 4/40/39
f 5/38/37 36/41/40 37/39/38
f 36/41/40 35/42/41 37/39/38
f 36/41/40 34/43/42 35/42/41
f 34/43/42 33/44/43 35/42/41
f 34/43/42 32/45/44 33/44/43
f 32/45/44 31/46/45 33/44/43
f 32/45/44 30/47/46 31/46/45
f 30/47/46 29/48/47 31/46/45
f 30/47/46 28/49/48 29/48/47
f 28/49/48 27/50/49 29/48/47
f 28/49/48 25/51/50 27/50/49
f 25/51/50 26/52/51 27/50/49
f 26/52/51 25/51/50 24/53/52
f 25/51/50 23/54/53 24/53/52
f 20/55/54 24/53/52 23/54/53
f 22/56/55 20/55/54 23/54/53
f 22/56/55 21/57/56 20/55/54
f 12/58/57 19/59/58 10/60/59
f 19/59/58 18/61/60 10/60/59
f 10/60/59 18/61/60 17/62/61
f 10/60/59 17/62/61 8/63/62
f 13/64/63 16/65/64 12/58/57
f 13/64/63 15/66/65 16/65/64
f 14/67/66 15/66/65 13/64/63
f 14/67/66 13/64/63 1/68/67
f 13/64/63 3/69/68 1/68/67
f 3/69/68 13/64/63 12/58/57
f 11/70/69 3/69/68 12/58/57
f 11/70/69 12/58/57 10/60/59
f 9/71/70 11/70/69 10/60/59
f 9/71/70 10/60/59 8/63/62
f 7/72/71 9/71/70 8/63/62
f 8/63/62 6/73/72 7/72/71
f 6/73/72 4/40/39 7/72/71
f 6/73/72 5/38/37 4/40/39
f 3/69/68 2/74/73 1/68/67
